<svg width="512" height="512" viewBox="0 0 512 512" fill="none" xmlns="http://www.w3.org/2000/svg">
<path d="M446.962 239.548C451.843 249.54 456.861 260.314 455.188 271.292C453.195 284.413 442.175 294.291 430.901 301.469C421.856 307.224 412.005 312.185 404.096 319.235C402.467 320.648 401.344 322.554 400.896 324.663C400.447 326.772 400.699 328.97 401.613 330.923C412.293 353.172 420.241 376.631 425.284 400.79C425.466 401.673 425.447 402.585 425.229 403.459C425.01 404.333 424.598 405.146 424.022 405.839C423.447 406.532 422.723 407.087 421.903 407.462C421.084 407.837 420.191 408.023 419.29 408.006L380.89 407.462C378.871 407.616 376.847 407.211 375.043 406.289C373.193 404.786 371.889 402.715 371.335 400.396C362.688 376.021 354.041 351.647 345.393 327.274C343.982 323.297 342.55 319.082 343.359 314.95C344.224 310.513 347.501 306.973 350.744 303.795C357.233 297.434 364.131 291.505 371.395 286.046C375.047 283.303 378.904 280.552 381.145 276.593C385.309 269.23 382.751 260.082 380.104 252.061C395.51 237.481 426.315 234.325 446.962 239.548Z" fill="#74A3D7"/>
<path d="M272.123 311.074C274.342 306.268 279.839 304.005 284.848 302.17C301.925 295.916 312.189 289.661 329.266 283.407C334.126 281.627 339.209 279.695 342.567 275.789C345.926 271.882 346.764 265.342 342.941 261.878L342.927 261.642C347.1 256.702 352.238 252.666 358.025 249.781C363.812 246.896 370.128 245.223 376.585 244.864C378.786 244.739 380.994 244.853 383.171 245.205C381.463 246.381 379.843 247.68 378.324 249.091C378.204 249.209 378.119 249.356 378.076 249.518C378.034 249.68 378.035 249.85 378.081 250.011C379.372 253.658 380.351 257.407 381.007 261.219C381.722 265.045 381.371 268.994 379.993 272.635C378.254 276.14 375.648 279.141 372.422 281.354C365.792 286.515 359.189 291.608 353.009 297.318C347.576 302.341 340.461 308.12 340.521 316.221C340.689 319.503 341.405 322.734 342.641 325.779C338.336 326.815 333.983 327.743 329.626 328.661C328.649 328.86 327.725 329.26 326.911 329.835C326.097 330.41 325.411 331.148 324.898 332.002C324.384 332.856 324.054 333.807 323.928 334.796C323.801 335.785 323.882 336.788 324.164 337.744C329.16 354.403 338.516 372.7 339.695 389.641C340.055 394.803 342.241 401.104 336.584 403.367C335.153 403.896 333.619 404.087 332.102 403.924L313.537 403.97C308.035 403.505 302.111 402.869 298.006 399.217C295.057 396.593 293.511 392.8 292.098 389.132C284.199 368.638 278.064 345.588 272.452 324.367C271.297 320 270.22 315.191 272.123 311.074Z" fill="#74A3D7"/>
<path d="M238.251 144.942C241.538 141.906 246.286 139.651 250.083 137.284C264.065 128.462 278.722 120.758 293.917 114.244C325.429 100.915 359.125 94.0306 392.455 86.9496C410.283 83.1574 447.853 103.485 466.944 145.434C486.035 187.382 495.65 226.912 462.612 238.853C408.013 258.587 353.43 267.554 298.977 287.691C298.977 287.691 243.374 165.431 239.701 156.16C238.283 152.576 235.102 147.85 238.251 144.942Z" fill="#F78CB6"/>
<path d="M236.466 143.159C240.05 139.907 244.408 137.808 248.498 135.298C252.974 132.548 257.456 129.821 262.026 127.234C271.128 122.053 280.494 117.353 290.087 113.152C309.592 104.936 329.769 98.4201 350.394 93.6756C360.644 91.1872 370.954 88.9447 381.269 86.7448C387.54 85.4085 393.837 83.4577 400.306 84.1609C411.983 85.4289 422.996 91.2879 432.317 98.1692C445.14 107.746 455.851 119.863 463.783 133.763C468.333 141.993 472.293 150.535 475.634 159.324C478.95 167.408 481.708 175.708 483.891 184.168C487.183 197.405 489.182 212.794 482.633 225.398C479.626 231.022 475.005 235.618 469.366 238.597C465.335 240.586 461.15 242.246 456.853 243.562C451.589 245.382 446.299 247.129 440.981 248.801C420.173 255.362 399.058 260.871 377.977 266.462C356.862 272.063 335.763 277.777 315.04 284.711C309.88 286.436 304.746 288.241 299.641 290.125C299.105 290.273 298.535 290.239 298.02 290.029C297.504 289.819 297.073 289.445 296.793 288.964C294.755 284.486 292.718 280.006 290.683 275.524C285.846 264.874 281.011 254.221 276.176 243.565C270.374 230.758 264.577 217.947 258.785 205.131C253.819 194.131 248.87 183.124 243.937 172.111C242.372 168.605 240.817 165.094 239.273 161.579C238.737 160.352 238.209 159.122 237.688 157.887C236.527 155.553 235.538 153.136 234.728 150.658C234.308 149.369 234.247 147.991 234.55 146.67C234.853 145.349 235.51 144.135 236.45 143.159C236.928 142.711 237.562 142.466 238.217 142.477C238.872 142.487 239.497 142.752 239.961 143.215C240.424 143.678 240.689 144.304 240.7 144.959C240.711 145.614 240.467 146.247 240.019 146.726C239.738 146.971 239.534 147.294 239.433 147.653C239.332 148.013 239.338 148.394 239.451 148.75C239.685 149.83 240.046 150.88 240.526 151.876C241.123 153.211 241.72 154.537 242.28 155.889L242.49 156.401C242.678 156.86 242.248 155.837 242.369 156.114C242.418 156.228 242.466 156.344 242.516 156.455C242.743 156.986 242.971 157.515 243.198 158.044C244.605 161.287 246.04 164.511 247.477 167.738C252.166 178.261 256.888 188.769 261.642 199.262C267.361 211.938 273.092 224.608 278.835 237.271C283.82 248.275 288.81 259.275 293.806 270.271L298.711 281.069C299.481 282.762 300.394 284.452 301.042 286.189C301.071 286.266 301.111 286.339 301.145 286.415L298.295 285.256C318.631 277.746 339.441 271.633 360.352 265.952C380.916 260.364 401.584 255.155 422.057 249.226C432.486 246.209 442.865 243.007 453.141 239.498C455.72 238.618 458.292 237.717 460.858 236.797C462.514 236.234 464.134 235.567 465.707 234.802C467.147 234.088 468.536 233.274 469.864 232.368C470.183 232.151 470.496 231.926 470.806 231.697C470.845 231.668 471.187 231.412 470.902 231.632C471.035 231.53 471.166 231.424 471.296 231.318C471.907 230.824 472.498 230.307 473.069 229.765C475.124 227.879 476.827 225.642 478.097 223.159C478.729 222.019 479.261 220.826 479.686 219.593C480.182 218.198 480.589 216.773 480.906 215.327C481.062 214.625 481.198 213.919 481.314 213.209C481.485 212.202 481.485 212.14 481.584 211.176C481.755 209.567 481.83 207.951 481.843 206.333C481.858 202.972 481.63 199.615 481.161 196.287C478.761 179.5 472.276 163.328 465.34 147.968C458.769 133.05 449.181 119.654 437.18 108.623C432.281 104.149 426.915 100.213 421.176 96.8841C416.451 94.0294 411.356 91.8364 406.035 90.3663C404.874 90.0506 403.7 89.7758 402.519 89.554C401.987 89.4533 401.454 89.3833 400.922 89.2877C400.459 89.2092 400.966 89.2877 401.039 89.3014L400.582 89.2451C400.282 89.2092 399.981 89.1785 399.681 89.1512C398.649 89.0568 397.614 89.0169 396.578 89.0317C396.117 89.0403 395.655 89.0607 395.196 89.0949C394.959 89.1119 394.723 89.1358 394.486 89.158C393.67 89.2348 394.827 89.0829 394.162 89.1973C389.724 89.9465 385.33 91.0388 380.933 91.9774C375.88 93.0572 370.833 94.158 365.79 95.2798C345.502 99.5523 325.527 105.191 306 112.159C286.827 119.509 268.421 128.72 251.046 139.662C247.344 141.935 243.277 143.794 240.034 146.732C237.633 148.903 234.052 145.345 236.466 143.159Z" fill="#F78CB6"/>
<path d="M245.439 246.351C227.717 207.421 219.6 153.894 236.194 146.34C252.788 138.786 289.469 160.416 307.191 199.346C324.913 238.275 331.564 271.167 300.365 287.314C284.186 295.692 263.168 285.28 245.439 246.351Z" fill="white"/>
<path d="M225.451 162.693C225.821 158.026 227.233 153.5 229.584 149.451C230.642 147.811 232.023 146.403 233.643 145.315C235.262 144.226 237.087 143.478 239.005 143.118C248.641 141.147 258.848 145.336 267.027 150.095C278.793 157.193 288.998 166.603 297.025 177.756C301.682 184.045 305.677 190.798 308.944 197.909C312.432 205.396 315.538 213.055 318.251 220.856C322.584 233.535 325.931 247.451 323.529 260.874C322.546 266.564 320.251 271.947 316.827 276.596C312.86 281.743 307.809 285.954 302.032 288.93C298.131 291.08 293.751 292.212 289.297 292.222C284.598 292.097 279.997 290.853 275.874 288.594C264.201 282.431 255.906 270.717 249.591 259.489C247.39 255.573 245.386 251.549 243.521 247.465C236.974 233.026 231.996 217.926 228.673 202.424C227.103 195.263 225.989 188.009 225.338 180.707C224.742 174.715 224.78 168.677 225.451 162.693V162.693ZM231.142 191.734C233.622 206.656 237.658 221.277 243.183 235.358C244.478 238.689 245.863 241.982 247.339 245.236C253.252 258.186 260.663 271.543 271.887 280.667C273.798 282.207 275.848 283.568 278.009 284.73C278.475 284.978 278.948 285.217 279.426 285.442C279.675 285.56 279.927 285.674 280.18 285.783L280.289 285.831C280.451 285.899 280.615 285.966 280.779 286.031C281.783 286.428 282.809 286.767 283.851 287.046C284.342 287.176 284.834 287.29 285.329 287.387C285.544 287.432 285.757 287.473 285.973 287.51C286.066 287.527 286.42 287.58 286.575 287.606C288.482 287.857 290.414 287.863 292.323 287.623C292.439 287.604 292.613 287.58 292.688 287.567C292.92 287.529 293.152 287.486 293.385 287.44C293.876 287.341 294.364 287.228 294.849 287.099C295.795 286.84 296.725 286.528 297.636 286.164C297.667 286.149 297.7 286.137 297.733 286.128C297.766 286.111 297.815 286.087 297.936 286.032C298.156 285.932 298.377 285.831 298.593 285.727C299.232 285.418 299.856 285.085 300.471 284.744C303.17 283.291 305.708 281.558 308.043 279.573C312.121 276.103 315.299 271.698 317.305 266.733C321.652 255.521 319.939 242.954 316.877 231.477C314.879 224.223 312.414 217.106 309.497 210.171C306.62 202.88 303.197 195.817 299.257 189.041C292.318 177.303 283.145 167.04 272.256 158.833C267.741 155.439 262.851 152.575 257.681 150.299C257.447 150.199 256.812 149.941 256.294 149.74C255.669 149.498 255.04 149.271 254.406 149.057C253.33 148.688 252.239 148.359 251.134 148.07C250.03 147.785 248.916 147.545 247.791 147.362C247.583 147.328 247.375 147.297 247.166 147.268C247.107 147.268 246.76 147.219 246.671 147.21C246.18 147.157 245.688 147.116 245.195 147.089C244.198 147.031 243.198 147.035 242.202 147.101C241.974 147.116 241.747 147.135 241.519 147.157C241.446 147.157 241.254 147.188 241.138 147.203C240.731 147.265 240.323 147.333 239.92 147.422C239.081 147.614 238.256 147.862 237.45 148.166C237.394 148.187 237.396 148.183 237.387 148.183L237.278 148.241C237.107 148.325 236.937 148.403 236.766 148.494C236.406 148.685 236.066 148.905 235.727 149.13C235.674 149.166 235.621 149.205 235.57 149.245C235.448 149.347 235.325 149.448 235.206 149.554C234.873 149.852 234.557 150.17 234.261 150.506C234.124 150.658 233.996 150.816 233.865 150.974C233.832 151.011 233.836 151.004 233.827 151.014L233.738 151.148C233.479 151.526 233.226 151.905 232.989 152.3C232.752 152.694 232.547 153.085 232.347 153.494C232.257 153.677 232.177 153.859 232.086 154.046C232.037 154.153 231.989 154.261 231.941 154.368L231.921 154.414L231.885 154.506C231.502 155.483 231.17 156.48 230.892 157.491C229.658 162.407 229.135 167.473 229.339 172.537C229.462 178.972 230.067 185.389 231.149 191.734H231.142Z" fill="#F78CB6"/>
<path d="M12.7147 436C16.3721 432.299 21.4903 430.198 26.368 428.65C34.9508 426.14 43.7638 424.499 52.6746 423.75C66.9065 422.214 81.2493 421.739 95.5546 421.569C116.618 421.316 137.696 421.825 158.74 422.682C177.514 423.448 196.311 424.537 215.008 426.528C227.374 427.692 239.656 429.62 251.785 432.302C259.141 433.78 266.254 436.281 272.916 439.731C276.85 441.657 280.066 444.788 282.095 448.669C283.206 451.574 283.54 454.719 283.064 457.793C282.92 460.556 282.018 463.225 280.458 465.51C277.974 468.529 274.682 470.778 270.967 471.996C264.707 474.185 258.206 475.613 251.604 476.247C240.298 477.578 228.931 478.331 217.549 478.503C199.707 478.966 181.849 478.754 164.009 478.333C142.611 477.821 121.209 477.061 99.8485 475.667C84.9152 474.692 69.9818 473.434 55.156 471.294C46.0605 470.155 37.0768 468.254 28.2999 465.609C23.0975 464.177 18.2314 461.726 13.9844 458.397C11.3924 456.241 9.59809 453.278 8.88831 449.981C8.61109 448.537 8.49657 447.067 8.54696 445.597C8.66443 441.984 10.1549 438.552 12.7147 436V436ZM12.3614 447.65C12.3767 447.875 12.4672 448.544 12.4484 448.466C12.486 448.708 12.5218 448.951 12.573 449.191C12.7228 449.851 12.9149 450.5 13.1482 451.135C13.1652 451.181 13.1618 451.174 13.172 451.205C13.1823 451.236 13.172 451.205 13.172 451.205C13.2488 451.359 13.3154 451.519 13.3922 451.674C13.556 452.002 13.7335 452.322 13.9247 452.634C14.1243 452.96 14.3496 453.267 14.5664 453.581C14.5937 453.622 14.5835 453.611 14.5971 453.632C14.6108 453.652 14.6193 453.652 14.6688 453.71C14.8002 453.859 14.9231 454.012 15.0545 454.161C15.6475 454.818 16.2881 455.43 16.9711 455.992L17.2339 456.204C17.4199 456.344 17.606 456.484 17.7954 456.619C18.2278 456.926 18.6692 457.219 19.1198 457.498C20.1186 458.114 21.1485 458.678 22.2054 459.189C22.8061 459.481 23.4171 459.754 24.0298 460.023L24.1578 460.08L24.588 460.25C24.9412 460.392 25.2945 460.534 25.6495 460.67C27.1428 461.244 28.6583 461.759 30.1875 462.234C34.0224 463.428 37.9323 464.36 41.8628 465.172C53.4153 467.432 65.0823 469.06 76.812 470.05C94.9197 471.779 113.096 472.765 131.268 473.499C152.057 474.339 172.868 474.897 193.676 474.952C207.812 474.989 221.969 474.817 236.08 473.897C244.662 473.5 253.201 472.447 261.622 470.746C264.332 470.179 266.997 469.417 269.597 468.466C269.86 468.367 270.121 468.263 270.382 468.161L270.609 468.074L270.766 468.002C271.241 467.789 271.715 467.575 272.181 467.342C272.995 466.937 273.782 466.481 274.538 465.976C274.708 465.864 274.879 465.746 275.038 465.635C275.101 465.591 275.161 465.543 275.224 465.497C275.511 465.256 275.801 465.021 276.077 464.765C276.354 464.509 276.576 464.282 276.808 464.024C276.92 463.901 277.026 463.773 277.135 463.647L277.197 463.57C277.56 463.064 277.89 462.534 278.183 461.984C278.25 461.851 278.308 461.713 278.376 461.582V461.566C278.472 461.286 278.586 461.013 278.675 460.73C278.85 460.17 278.99 459.6 279.093 459.023C279.144 458.745 279.264 457.755 279.171 458.585C279.202 458.286 279.243 457.987 279.27 457.687C279.381 456.455 279.451 455.2 279.441 453.963C279.441 453.596 279.405 453.233 279.383 452.866V452.791V452.755C279.344 452.564 279.316 452.369 279.276 452.178C279.196 451.802 279.097 451.431 278.977 451.067C278.919 450.886 278.849 450.71 278.787 450.531C278.772 450.488 278.767 450.469 278.758 450.442L278.728 450.384C278.351 449.635 277.926 448.911 277.455 448.217C277.405 448.147 277.403 448.14 277.383 448.109C277.363 448.092 277.344 448.072 277.328 448.051C277.173 447.869 277.024 447.682 276.866 447.505C276.541 447.14 276.2 446.79 275.842 446.455C275.461 446.094 275.065 445.752 274.661 445.419L274.388 445.203L274.371 445.191C274.132 445.02 273.893 444.837 273.65 444.667C272.622 443.953 271.553 443.299 270.45 442.708C269.167 442.015 267.846 441.393 266.506 440.818L266.443 440.789L266.283 440.724L265.728 440.497C265.324 440.327 264.916 440.177 264.508 440.021C263.669 439.702 262.826 439.398 261.978 439.11C252.778 436.166 243.339 434.031 233.767 432.729C218.631 430.384 203.339 429.053 188.064 428.027C166.873 426.603 145.63 425.834 124.396 425.467C107.037 425.166 89.6512 425.17 72.3081 426.044C61.0898 426.454 49.9113 427.612 38.8471 429.51C35.1113 430.178 31.4179 431.065 27.7862 432.167C26.3117 432.628 24.8542 433.14 23.4206 433.717C23.2806 433.771 23.1424 433.829 23.0041 433.888L22.8745 433.944C22.557 434.085 22.2396 434.224 21.9238 434.371C21.3493 434.639 20.7804 434.923 20.2172 435.224C19.2301 435.747 18.278 436.334 17.367 436.98C17.2595 437.057 16.9284 437.311 16.8943 437.332C16.7543 437.444 16.6144 437.555 16.4778 437.673C16.1285 437.969 15.7912 438.278 15.4658 438.6C15.1518 438.914 14.8565 439.241 14.5681 439.578C14.5101 439.644 14.4555 439.714 14.3974 439.782C14.2916 439.931 14.1824 440.076 14.08 440.226C13.8547 440.555 13.6465 440.897 13.4553 441.25C13.3632 441.421 13.126 441.972 13.0594 442.103C12.8301 442.692 12.6447 443.297 12.5047 443.912C12.4672 444.083 12.4416 444.264 12.4058 444.44L12.3921 444.501V444.534C12.3682 444.892 12.3255 445.249 12.3136 445.609C12.3085 446.276 12.3136 446.961 12.3614 447.642V447.65Z" fill="#F78CB6"/>
<path d="M179.268 307.999C172.047 307.999 166.193 302.145 166.193 294.924C166.193 287.703 172.047 281.849 179.268 281.849C186.489 281.849 192.343 287.703 192.343 294.924C192.343 302.145 186.489 307.999 179.268 307.999Z" fill="#74A3D7"/>
<path d="M145.886 255.5C140.705 255.5 136.504 251.3 136.504 246.118C136.504 240.937 140.705 236.737 145.886 236.737C151.067 236.737 155.267 240.937 155.267 246.118C155.267 251.3 151.067 255.5 145.886 255.5Z" fill="#74A3D7"/>
<path d="M126.413 430.261C117.731 430.261 110.693 423.223 110.693 414.541C110.693 405.859 117.731 398.821 126.413 398.821C135.095 398.821 142.133 405.859 142.133 414.541C142.133 423.223 135.095 430.261 126.413 430.261Z" fill="#74A3D7"/>
<path d="M233.842 180.349C227.976 180.349 223.22 175.593 223.22 169.726C223.22 163.86 227.976 159.104 233.842 159.104C239.709 159.104 244.465 163.86 244.465 169.726C244.465 175.593 239.709 180.349 233.842 180.349Z" fill="#74A3D7"/>
<path d="M256.806 212.359L296.728 227.232L289.065 184.112L256.806 212.359Z" fill="#F36E72"/>
<path d="M110.466 309.596L135.747 288.329L103.716 277.038L110.466 309.596Z" fill="#F36E72"/>
<path d="M177.014 448.167L218.016 413.676L166.067 395.361L177.014 448.167Z" fill="#F36E72"/>
<path d="M123.703 365.072L150.031 356.088L159.015 382.416L132.687 391.4L123.703 365.072Z" fill="#FEE253"/>
<path d="M206.181 317.524L229.38 324.225L222.679 347.425L199.48 340.724L206.181 317.524Z" fill="#FEE253"/>
<path d="M274.802 259.232L246.893 290.286L215.839 262.378L243.748 231.324L274.802 259.232Z" fill="#FEE253"/>
<path d="M193.901 248.001C193.913 247.674 194.051 247.365 194.287 247.138C194.522 246.911 194.836 246.784 195.163 246.784C195.49 246.784 195.804 246.911 196.04 247.138C196.275 247.365 196.413 247.674 196.425 248.001L196.371 252.208C198.106 249.202 200.424 246.574 203.188 244.476C205.953 242.379 209.11 240.855 212.471 239.995C214.048 239.607 214.721 242.043 213.142 242.429C210.129 243.192 207.297 244.543 204.809 246.406C202.321 248.269 200.227 250.605 198.646 253.281C199.283 252.923 199.949 252.618 200.637 252.372C202.173 251.825 202.829 254.263 201.308 254.805C199.087 255.607 197.238 257.198 196.113 259.275C195.969 259.508 195.753 259.688 195.499 259.788C195.244 259.889 194.964 259.904 194.699 259.832C194.435 259.761 194.201 259.606 194.032 259.39C193.863 259.175 193.768 258.911 193.761 258.637L193.901 248.001Z" fill="black"/>
<path d="M130.156 327.059L130.796 329.96C132.299 323.752 134.737 317.809 138.025 312.334C138.199 312.054 138.475 311.854 138.794 311.775C139.113 311.696 139.451 311.745 139.735 311.911C140.019 312.077 140.227 312.347 140.314 312.664C140.402 312.981 140.363 313.32 140.204 313.609C137.198 318.627 134.932 324.053 133.475 329.719C134.885 328.794 136.423 328.078 138.039 327.595C138.357 327.518 138.693 327.569 138.975 327.735C139.257 327.902 139.464 328.171 139.551 328.487C139.638 328.803 139.599 329.14 139.442 329.428C139.285 329.715 139.022 329.931 138.709 330.028C136.389 330.728 134.281 331.995 132.576 333.716C132.533 333.942 132.465 334.162 132.424 334.389C132.403 334.543 132.349 334.691 132.265 334.822C132.181 334.953 132.069 335.064 131.937 335.147C131.805 335.229 131.657 335.282 131.502 335.301C131.348 335.319 131.191 335.303 131.043 335.254C130.878 335.345 130.695 335.397 130.507 335.408C130.319 335.419 130.131 335.388 129.957 335.318C129.782 335.247 129.626 335.139 129.498 335C129.371 334.862 129.276 334.697 129.22 334.517C128.72 332.256 128.22 329.995 127.722 327.733C127.374 326.144 129.806 325.472 130.156 327.059Z" fill="black"/>
<path d="M156.331 213.106C156.03 211.519 158.461 210.84 158.764 212.436C158.954 213.472 159.081 214.518 159.143 215.569C161.645 209.99 165.512 205.13 170.387 201.438C171.68 200.457 172.947 202.648 171.662 203.617C167.104 207.105 163.526 211.712 161.275 216.991C162.464 216.538 163.733 216.332 165.004 216.385C166.622 216.453 166.63 218.976 165.004 218.909C163.132 218.819 161.301 219.475 159.913 220.734C159.863 220.904 159.8 221.059 159.754 221.225C159.698 221.449 159.575 221.651 159.402 221.803C159.228 221.955 159.012 222.051 158.783 222.078C158.751 222.128 158.703 222.162 158.672 222.213C158.512 222.468 158.266 222.657 157.98 222.747C157.693 222.837 157.383 222.823 157.106 222.706C156.829 222.589 156.603 222.377 156.467 222.109C156.332 221.841 156.296 221.533 156.366 221.24C156.854 218.55 156.842 215.793 156.331 213.106V213.106Z" fill="black"/>
<path d="M245.077 204.896C245.449 202.715 245.822 200.534 246.195 198.354C246.461 196.799 248.755 197.405 248.626 198.904C251.075 195.459 253.831 192.242 256.858 189.292C258.024 188.16 259.809 189.942 258.642 191.075C255.185 194.441 252.096 198.164 249.426 202.182C250.908 201.552 252.446 201.064 254.02 200.725C255.604 200.383 256.28 202.817 254.691 203.157C251.935 203.74 249.306 204.811 246.927 206.321C245.922 206.961 244.907 205.906 245.077 204.896Z" fill="black"/>
<path d="M241.14 300.675C241.214 302.382 241.287 304.085 241.359 305.784C243.818 301.071 247.186 296.891 251.267 293.485C252.508 292.461 254.302 294.231 253.051 295.27C249.179 298.482 245.974 302.421 243.616 306.866C244.578 306.296 245.583 305.803 246.622 305.391C248.137 304.802 248.793 307.241 247.293 307.825C245.005 308.724 242.933 310.095 241.212 311.849C241.033 312.018 240.809 312.132 240.566 312.177C240.324 312.222 240.074 312.196 239.846 312.102C239.618 312.008 239.423 311.849 239.283 311.646C239.143 311.444 239.065 311.204 239.058 310.958L238.618 300.675C238.548 299.051 241.07 299.054 241.14 300.675Z" fill="black"/>
<path d="M183.206 379.733L184.134 382.198C184.615 376.17 185.957 370.242 188.119 364.595C188.698 363.097 191.138 363.742 190.553 365.266C188.407 370.848 187.085 376.712 186.627 382.674L188.704 379.749C189.638 378.435 191.828 379.694 190.884 381.022L185.856 388.096C185.725 388.302 185.538 388.467 185.317 388.571C185.095 388.675 184.849 388.713 184.607 388.681C184.364 388.649 184.136 388.549 183.949 388.392C183.762 388.235 183.624 388.027 183.55 387.794C182.622 385.33 181.694 382.865 180.767 380.399C180.2 378.88 182.639 378.226 183.206 379.733Z" fill="black"/>
<path d="M95.1535 399.474L95.5341 400.345C95.6909 395.03 96.3013 389.739 97.3585 384.529C97.6811 382.938 100.115 383.613 99.7905 385.2C98.7351 390.444 98.152 395.772 98.048 401.12L100.055 397.559C100.23 397.284 100.506 397.087 100.823 397.01C101.141 396.933 101.476 396.982 101.758 397.147C102.04 397.312 102.247 397.579 102.336 397.894C102.425 398.208 102.388 398.544 102.234 398.833L97.7715 406.748C97.6587 406.936 97.4991 407.092 97.3083 407.2C97.1175 407.308 96.9019 407.365 96.6827 407.365C96.4634 407.365 96.2478 407.308 96.057 407.2C95.8662 407.092 95.7066 406.936 95.5938 406.748C94.72 404.748 93.8473 402.748 92.9758 400.747C92.3307 399.275 94.505 397.995 95.1535 399.474Z" fill="black"/>
<path d="M119.731 350.502C118.435 350.502 117.385 349.451 117.385 348.155C117.385 346.859 118.435 345.808 119.731 345.808C121.027 345.808 122.078 346.859 122.078 348.155C122.078 349.451 121.027 350.502 119.731 350.502Z" fill="black"/>
<path d="M194.053 323.509C192.757 323.509 191.706 322.458 191.706 321.162C191.706 319.866 192.757 318.816 194.053 318.816C195.349 318.816 196.4 319.866 196.4 321.162C196.4 322.458 195.349 323.509 194.053 323.509Z" fill="black"/>
<path d="M208.198 284.196C206.902 284.196 205.851 283.145 205.851 281.849C205.851 280.553 206.902 279.502 208.198 279.502C209.494 279.502 210.545 280.553 210.545 281.849C210.545 283.145 209.494 284.196 208.198 284.196Z" fill="black"/>
<path d="M196.4 397.228C195.104 397.228 194.053 396.178 194.053 394.882C194.053 393.586 195.104 392.535 196.4 392.535C197.696 392.535 198.746 393.586 198.746 394.882C198.746 396.178 197.696 397.228 196.4 397.228Z" fill="black"/>
<path d="M171.03 348.155C169.734 348.155 168.684 347.104 168.684 345.808C168.684 344.512 169.734 343.462 171.03 343.462C172.326 343.462 173.377 344.512 173.377 345.808C173.377 347.104 172.326 348.155 171.03 348.155Z" fill="black"/>
<path d="M116.122 388.695C114.826 388.695 113.775 387.644 113.775 386.348C113.775 385.052 114.826 384.002 116.122 384.002C117.418 384.002 118.468 385.052 118.468 386.348C118.468 387.644 117.418 388.695 116.122 388.695Z" fill="black"/>
<path d="M151.038 279.385C149.742 279.385 148.692 278.334 148.692 277.038C148.692 275.742 149.742 274.691 151.038 274.691C152.334 274.691 153.385 275.742 153.385 277.038C153.385 278.334 152.334 279.385 151.038 279.385Z" fill="black"/>
<path d="M288.621 255.666C287.325 255.666 286.275 254.615 286.275 253.319C286.275 252.023 287.325 250.972 288.621 250.972C289.917 250.972 290.968 252.023 290.968 253.319C290.968 254.615 289.917 255.666 288.621 255.666Z" fill="black"/>
<path d="M187.238 201.907C185.942 201.907 184.892 200.857 184.892 199.561C184.892 198.265 185.942 197.214 187.238 197.214C188.534 197.214 189.585 198.265 189.585 199.561C189.585 200.857 188.534 201.907 187.238 201.907Z" fill="black"/>
<path d="M262.043 172.073C260.747 172.073 259.697 171.022 259.697 169.726C259.697 168.43 260.747 167.38 262.043 167.38C263.339 167.38 264.39 168.43 264.39 169.726C264.39 171.022 263.339 172.073 262.043 172.073Z" fill="black"/>
<path d="M281.069 89.5864C279.773 89.5864 278.723 88.5358 278.723 87.2397C278.723 85.9437 279.773 84.8931 281.069 84.8931C282.365 84.8931 283.416 85.9437 283.416 87.2397C283.416 88.5358 282.365 89.5864 281.069 89.5864Z" fill="black"/>
<path d="M260.403 93.551C259.107 93.551 258.057 92.5004 258.057 91.2043C258.057 89.9083 259.107 88.8577 260.403 88.8577C261.699 88.8577 262.75 89.9083 262.75 91.2043C262.75 92.5004 261.699 93.551 260.403 93.551Z" fill="black"/>
<path d="M268.276 97.5479C268.823 98.2428 269.527 98.7973 270.331 99.1652C271.135 99.5332 272.015 99.704 272.898 99.6634C273.781 99.6228 274.642 99.3721 275.408 98.932C276.175 98.492 276.826 97.8753 277.306 97.1332C278.19 95.7781 280.378 97.041 279.485 98.4063C278.774 99.5176 277.803 100.439 276.656 101.09C275.508 101.742 274.22 102.103 272.901 102.144C271.582 102.185 270.273 101.904 269.088 101.326C267.902 100.747 266.875 99.8877 266.097 98.8228C265.112 97.5308 267.303 96.273 268.276 97.5479Z" fill="black"/>
<path d="M247.014 62.1467C249.806 55.0319 254.253 48.6843 259.985 43.6293C265.566 38.8378 272.28 35.5531 279.489 34.0874C286.63 32.3396 294.156 33.1407 300.769 36.3521C302.388 37.2302 303.903 38.2876 305.285 39.5043C310.917 44.5629 313.924 52.0568 315.853 59.2146C316.365 61.0919 316.793 63.0034 317.165 64.92C317.565 66.5114 317.659 68.1645 317.44 69.7908C317.38 70.4575 317.132 71.0934 316.723 71.6234C316.314 72.1534 315.762 72.5556 315.133 72.7826C314.774 72.8733 314.4 72.8838 314.037 72.8133C315.209 75.614 316.373 78.4197 317.479 81.2477C318.148 82.9543 318.805 84.6713 319.45 86.3984C319.51 86.5559 319.521 86.7279 319.481 86.8916C320.735 90.942 321.016 95.2312 320.3 99.4105C319.585 103.59 317.893 107.541 315.363 110.944C314.638 111.903 312.994 110.961 313.728 109.988C316.137 106.788 317.748 103.059 318.427 99.1108C319.105 95.1629 318.831 91.1101 317.628 87.2893C317.58 87.145 317.571 86.9911 317.6 86.8421C315.537 81.3467 313.324 75.9092 311.009 70.5145C309.832 69.1065 308.671 67.6831 307.502 66.2683C306.89 65.3 306.048 64.4976 305.052 63.9321C304.055 63.3665 302.935 63.0551 301.79 63.0256C302.687 63.2348 303.521 63.6531 304.225 64.2463C304.929 64.8395 305.483 65.5908 305.841 66.4389C306.399 67.5823 306.619 68.8611 306.475 70.1251C306.331 71.3891 305.83 72.5858 305.029 73.5745C304.246 74.5206 303.175 75.1853 301.98 75.4677C300.784 75.7502 299.529 75.6349 298.406 75.1395C297.296 74.6429 298.257 73.0113 299.361 73.5045C300.123 73.7888 300.956 73.8189 301.736 73.5903C302.516 73.3617 303.202 72.8868 303.689 72.2365C304.229 71.5086 304.552 70.6433 304.622 69.74C304.691 68.8368 304.505 67.9322 304.084 67.1301C303.796 66.3782 303.261 65.7464 302.567 65.3389C301.873 64.9313 301.061 64.7721 300.264 64.8876C299.416 65.1132 298.652 65.5821 298.067 66.2365C297.482 66.891 297.101 67.7024 296.972 68.5706C296.76 69.6731 295.211 69.3181 295.149 68.3214C294.866 68.7071 294.576 69.086 294.272 69.4375C291.902 72.2107 288.953 74.4313 285.633 75.9434C282.367 77.4076 278.713 77.7712 275.222 76.9793C273.518 76.5837 271.91 75.8533 270.491 74.8306C269.914 74.2579 269.274 73.7534 268.582 73.327C267.51 72.897 266.974 73.7998 266.472 74.5695C265.574 75.9348 264.458 77.7098 262.687 77.9299C261.961 78.0027 261.232 77.8398 260.607 77.4654C259.981 77.0909 259.494 76.5249 259.215 75.8512C259.11 75.5717 258.92 75.3326 258.67 75.1683C258.421 75.0039 258.126 74.9228 257.828 74.9364C256.937 74.9979 256.633 75.8102 256.212 76.4571C255.751 77.1579 255.198 77.7939 254.568 78.3481C254.596 80.9539 254.89 83.5502 255.445 86.0963C257.809 96.9371 265.622 107.619 277.552 108.252C280.492 108.411 283.427 107.852 286.103 106.623C288.779 105.394 291.116 103.532 292.912 101.199C294.796 98.8014 296.171 96.0442 296.951 93.0964C297.731 90.1486 297.9 87.0724 297.448 84.0568C297.252 82.8622 299.075 82.3502 299.273 83.5534C299.843 87.2816 299.545 91.0913 298.4 94.6852C297.256 98.2791 295.297 101.56 292.676 104.272C295.404 106.196 297.279 109.103 297.907 112.381C298.078 113.575 296.257 114.087 296.083 112.893C295.806 111.415 295.237 110.006 294.41 108.75C293.583 107.495 292.514 106.416 291.265 105.578C288.907 107.591 286.096 109.003 283.073 109.693C280.204 110.282 277.246 110.299 274.371 109.742C271.495 109.186 268.757 108.067 266.315 106.45C261.275 102.976 257.441 98.0211 255.343 92.271C253.756 88.2004 252.876 83.889 252.739 79.5222C252.529 79.6287 252.315 79.7238 252.095 79.8073C248.441 81.0019 245.523 77.8992 244.792 74.561C243.883 70.4223 245.497 65.9457 247.014 62.1467Z" fill="black"/>
<path d="M273.408 412.01C276.72 411.001 280.156 410.453 283.617 410.38C287.433 410.16 291.253 409.986 295.069 409.791L318.374 408.596C325.212 408.247 332.795 407.34 338.953 411.037C341.728 412.593 343.779 415.18 344.66 418.237C345.077 419.739 345.113 421.322 344.766 422.841C344.418 424.361 343.698 425.77 342.67 426.941C342.58 427.048 342.463 427.13 342.332 427.178C342.201 427.227 342.06 427.24 341.922 427.218C341.86 427.24 341.795 427.255 341.729 427.261C321.628 427.602 301.529 427.365 281.433 426.551C275.767 426.323 270.103 426.045 264.443 425.718C264.194 425.71 263.958 425.608 263.782 425.432C263.607 425.256 263.505 425.019 263.497 424.771C262.919 418.645 268.054 413.867 273.408 412.01Z" fill="black"/>
<path d="M392.782 411.629C399.95 410.655 407.438 409.94 414.56 411.629C417.68 412.402 420.607 413.809 423.16 415.763C425.713 417.717 427.836 420.175 429.397 422.985C429.819 423.794 430.025 424.698 429.996 425.609C429.966 426.521 429.702 427.409 429.229 428.189C428.756 428.969 428.089 429.613 427.294 430.06C426.499 430.507 425.602 430.741 424.69 430.74C422.968 430.8 421.239 430.788 419.517 430.812L399.194 431.097L392.158 431.196C389.406 431.382 386.641 431.134 383.966 430.461C382.861 430.165 381.829 429.644 380.934 428.932C380.039 428.22 379.3 427.331 378.764 426.32C378.22 425.15 377.959 423.869 378.002 422.58C378.045 421.29 378.391 420.029 379.011 418.898C381.635 413.867 387.623 412.331 392.782 411.629Z" fill="black"/>
<path d="M221.676 196.666C222.421 195.852 223.366 195.247 224.417 194.909C225.468 194.572 226.589 194.514 227.669 194.741C232.447 195.913 236.637 198.777 239.466 202.801C239.864 203.237 240.152 203.762 240.306 204.332C240.46 204.901 240.475 205.5 240.35 206.077C240.126 206.509 239.787 206.873 239.371 207.127C238.955 207.381 238.477 207.517 237.99 207.519C234.46 208.009 230.867 207.724 227.459 206.682C230.125 207.473 232.558 208.9 234.548 210.842C236.538 212.783 238.025 215.18 238.88 217.825C239.207 218.484 239.368 219.212 239.351 219.947C239.333 220.682 239.137 221.402 238.78 222.044C238.443 222.364 238.036 222.601 237.592 222.736C237.147 222.87 236.677 222.899 236.22 222.819C233.088 222.683 229.994 222.07 227.046 221.003C230.534 222.334 233.602 224.573 235.933 227.488C236.826 228.424 237.366 229.64 237.461 230.929C237.444 231.568 237.264 232.191 236.939 232.741C236.614 233.291 236.153 233.749 235.602 234.071C234.579 234.59 233.427 234.797 232.288 234.665C224.531 234.219 217.359 227.156 215.487 218.11C214.771 214.301 214.958 210.377 216.032 206.653C217.107 202.928 219.04 199.508 221.676 196.666V196.666Z" fill="white"/>
<path d="M213.559 211.432C214.054 205.509 216.517 199.921 220.556 195.56C226.27 189.896 235.047 195.219 239.329 200.124C240.747 201.432 241.701 203.165 242.046 205.063C242.092 205.923 241.839 206.773 241.329 207.467C240.819 208.161 240.084 208.657 239.249 208.87C237.933 209.224 236.573 209.386 235.211 209.35C237.498 211.559 239.249 214.261 240.331 217.25C241.374 220.119 241.039 223.939 237.348 224.362C236.638 224.431 235.923 224.434 235.213 224.372C237.066 225.835 238.386 227.868 238.967 230.156C239.136 231.519 238.777 232.894 237.964 234.001C237.151 235.107 235.946 235.861 234.595 236.107C232.249 236.463 229.851 236.182 227.652 235.291C218.196 231.765 212.683 221.225 213.559 211.432ZM218.121 221.404C219.535 225.063 221.998 228.224 225.201 230.489C226.625 231.479 228.206 232.221 229.878 232.682C231.489 233.11 234.23 233.706 235.426 232.178C236.991 230.188 234.134 227.681 232.808 226.43C231.027 224.736 228.929 223.408 226.635 222.524C224.758 221.817 225.541 218.8 227.473 219.482C230.159 220.458 232.971 221.044 235.824 221.222C236.902 221.28 237.814 221.392 237.769 220.056C237.657 218.932 237.323 217.842 236.786 216.849C235.895 214.782 234.56 212.937 232.876 211.445C231.191 209.952 229.199 208.849 227.04 208.213C226.646 208.094 226.314 207.825 226.116 207.465C225.917 207.104 225.867 206.68 225.976 206.284C226.086 205.887 226.345 205.548 226.701 205.341C227.056 205.133 227.478 205.072 227.878 205.17C230.888 206.08 234.05 206.379 237.177 206.049C238.276 205.928 239.302 205.843 238.669 204.513C237.999 203.312 237.139 202.228 236.121 201.303C233.068 198.231 226.714 193.905 222.792 197.794C219.894 200.906 217.921 204.763 217.095 208.934C216.268 213.104 216.62 217.423 218.112 221.404H218.121Z" fill="black"/>
<path d="M428.14 141.824C448.238 153.511 465.446 169.575 478.486 188.822C476.848 191.696 475.18 194.555 473.484 197.398C468.086 206.418 463.981 215.533 457.503 223.811C456.519 225.231 455.266 226.445 453.815 227.383C453.082 227.841 452.239 228.093 451.375 228.114C450.511 228.134 449.658 227.921 448.905 227.497C446.857 226.132 446.77 223.113 447.539 220.774C448.309 218.436 449.688 216.252 449.847 213.798C448.144 217.018 445.762 219.831 442.866 222.041C439.825 224.024 435.446 224.452 432.737 222.041C431.724 220.999 430.994 219.714 430.617 218.31C430.24 216.906 430.229 215.429 430.585 214.019C430.786 213.113 431.072 212.227 431.439 211.374C430.893 212.236 430.269 213.046 429.575 213.792C428.586 214.92 427.341 215.793 425.943 216.337C424.546 216.881 423.037 217.08 421.547 216.917C418.601 216.405 415.061 212.028 420.68 201.423C423.458 195.026 427.064 186.494 429.843 180.099C428.804 182.407 427.31 184.482 425.452 186.199C424.507 187.041 423.334 187.585 422.08 187.762C420.827 187.94 419.549 187.742 418.408 187.194C415.244 185.317 415.36 180.75 416.121 177.152C418.698 164.965 423.987 153.568 428.14 141.824Z" fill="white"/>
<path d="M415.986 171.097C417.3 166.368 418.944 161.739 420.673 157.15C422.653 151.898 424.742 146.688 426.619 141.397C426.67 141.275 426.738 141.161 426.819 141.056L426.844 141.013C426.912 140.907 426.993 140.809 427.085 140.721C427.308 140.46 427.618 140.288 427.958 140.237C428.299 140.187 428.646 140.262 428.935 140.448C444.707 149.682 458.781 161.548 470.547 175.532C473.871 179.522 476.978 183.688 479.855 188.012C479.997 188.253 480.071 188.528 480.071 188.808C480.071 189.088 479.997 189.362 479.855 189.604C477.331 194.028 474.67 198.371 472.175 202.812C469.833 206.985 467.598 211.215 465.142 215.323C462.864 219.482 460.112 223.363 456.941 226.889C455.463 228.549 453.385 229.554 451.166 229.683C450.185 229.705 449.216 229.46 448.364 228.973C447.512 228.486 446.808 227.777 446.329 226.92C445.533 225.303 445.314 223.463 445.706 221.705C444.537 222.929 443.11 223.879 441.529 224.485C439.948 225.092 438.252 225.339 436.564 225.21C435.075 225.103 433.643 224.591 432.424 223.729C431.205 222.868 430.245 221.69 429.646 220.322C429.119 219.08 428.842 217.746 428.832 216.397C427.808 217.218 426.63 217.826 425.367 218.184C424.103 218.542 422.781 218.644 421.478 218.482C420.493 218.323 419.562 217.922 418.771 217.313C417.979 216.704 417.352 215.908 416.945 214.996C415.86 212.13 415.867 208.966 416.964 206.106C417.769 203.921 418.689 201.78 419.719 199.692C420.588 197.686 421.452 195.678 422.31 193.669C423.035 191.974 423.767 190.281 424.492 188.585C423.787 188.932 423.036 189.177 422.262 189.312C421.346 189.47 420.407 189.439 419.504 189.223C418.6 189.006 417.749 188.609 417.004 188.053C416.259 187.498 415.634 186.797 415.168 185.993C414.702 185.189 414.405 184.299 414.293 183.376C413.607 179.277 414.891 175.015 415.986 171.097ZM419.867 186.115C420.762 186.313 421.693 186.278 422.57 186.014C423.448 185.749 424.243 185.264 424.88 184.605C426.366 183.046 427.583 181.251 428.483 179.294C429.459 177.463 431.993 179.072 431.213 180.886C429.646 184.494 428.094 188.107 426.556 191.725C424.982 195.406 423.564 199.224 421.748 202.791C420.086 205.558 419.247 208.741 419.328 211.968C419.399 212.75 419.659 213.502 420.086 214.161C420.237 214.384 420.416 214.586 420.618 214.763C420.915 215.05 420.618 214.796 420.813 214.922C420.971 215.025 421.132 215.115 421.299 215.202C421.176 215.139 421.263 215.216 421.528 215.284C421.72 215.336 421.915 215.376 422.112 215.402C423.14 215.503 424.179 215.349 425.134 214.955C427.195 214.038 428.92 212.503 430.07 210.562C430.993 209.167 433.654 210.024 432.952 211.777C432.404 212.892 432.081 214.105 432.002 215.345C431.923 216.585 432.089 217.829 432.491 219.005C432.912 219.973 433.619 220.79 434.519 221.343C435.418 221.897 436.465 222.161 437.519 222.1C442.836 222.044 445.988 216.992 448.486 212.989C449.256 211.756 451.572 212.135 451.425 213.786C451.154 215.763 450.574 217.686 449.708 219.484C448.957 220.943 448.614 222.577 448.715 224.215C448.735 224.579 448.835 224.934 449.008 225.254C449.182 225.575 449.424 225.853 449.718 226.068C450.012 226.284 450.35 226.431 450.708 226.5C451.066 226.569 451.434 226.557 451.787 226.466C453.557 225.884 455.067 224.7 456.054 223.119C461.414 216.417 465.27 208.672 469.458 201.221C471.786 197.074 474.255 193.005 476.626 188.882C466.734 174.374 454.363 161.722 440.081 151.506C436.475 148.903 432.742 146.48 428.945 144.167C426.19 151.714 423.086 159.135 420.582 166.777C419.208 170.667 418.151 174.663 417.422 178.724C417.053 181.185 416.93 185.173 419.867 186.121V186.115Z" fill="black"/>
<path d="M319.768 88.856C319.768 88.856 367.474 50.7359 390.499 44.3734C413.124 38.1253 438.127 38.9121 459.117 50.3075C489.16 66.6318 499.294 97.4627 501.4 112.626C504.661 136.057 493.471 162.975 478.988 188.757C465.738 169.507 448.369 153.447 428.141 141.744C428.399 140.986 428.67 140.233 428.914 139.471C433.196 126.128 439.666 108.263 429.756 98.357C422.895 91.5013 401.58 82.5584 393.189 84.3419C359.859 91.4228 314.551 110.466 314.551 110.466C319.57 103.924 322.336 96.6913 319.768 88.856Z" fill="#FFE8AB"/>
<path d="M313.189 109.669C315.53 106.767 317.309 103.453 318.435 99.8982C319.434 96.418 319.368 92.7186 318.247 89.2759C318.22 89.1601 318.208 89.0414 318.21 88.9226C318.21 88.8885 318.21 88.8577 318.2 88.8236C318.193 88.6491 318.222 88.4751 318.283 88.3116C318.295 88.2703 318.309 88.2298 318.326 88.1904C318.388 88.0709 318.467 87.9611 318.561 87.8645C318.597 87.8269 318.611 87.7723 318.653 87.7382C321.519 85.4478 324.434 83.2189 327.357 81.002C334.018 75.9502 340.788 71.0424 347.667 66.2785C355.579 60.8172 363.651 55.5419 372.072 50.8742C375.734 48.8109 379.502 46.9423 383.36 45.2763C387.674 43.5016 392.15 42.1498 396.725 41.24C410.191 38.2873 424.123 38.1479 437.646 40.8304C450.512 43.4834 462.536 49.2364 472.675 57.5899C480.951 64.5343 487.812 73.0067 492.885 82.5448C496.981 90.1044 500.014 98.1929 501.898 106.581C504.124 117.33 503.96 128.437 501.419 139.116C498.289 153.281 492.365 166.764 485.717 179.605C483.985 182.951 482.193 186.266 480.341 189.551C480.199 189.786 479.999 189.98 479.76 190.115C479.521 190.25 479.251 190.321 478.976 190.321C478.701 190.321 478.432 190.25 478.192 190.115C477.953 189.98 477.753 189.786 477.611 189.551C467.476 174.735 454.8 161.83 440.168 151.431C436.024 148.461 431.75 145.686 427.346 143.106C427.048 142.928 426.816 142.658 426.686 142.337C426.555 142.016 426.532 141.661 426.621 141.326C428.951 134.923 430.875 128.379 432.381 121.733C433.575 115.917 434.289 109.196 431.606 103.665C429.324 98.9612 424.757 96.1315 420.32 93.7064C415.172 90.8737 409.713 88.6465 404.053 87.0691C401.683 86.3662 399.245 85.9143 396.78 85.7209C394.414 85.6955 392.059 86.0299 389.794 86.7125C383.246 88.2348 376.765 90.0387 370.338 91.9878C358.113 95.6929 346.047 99.9255 334.097 104.446C329.853 106.047 325.625 107.69 321.413 109.374C319.365 110.194 317.329 111.131 315.249 111.881C315.157 111.915 315.068 111.956 314.977 111.995C314.674 112.075 314.354 112.064 314.057 111.963C313.761 111.862 313.5 111.676 313.309 111.427C313.118 111.178 313.005 110.879 312.983 110.566C312.962 110.253 313.033 109.941 313.189 109.669V109.669ZM330.342 102.501C342.345 97.9099 354.468 93.6006 366.744 89.7896C373.368 87.7416 380.042 85.8216 386.784 84.1866C389.48 83.3729 392.248 82.8237 395.051 82.5465C397.529 82.5135 400 82.8003 402.405 83.3998C408.289 84.7953 413.985 86.8942 419.367 89.6513C424.044 91.9809 429.119 94.7594 432.379 98.9629C436.337 104.071 436.999 110.739 436.304 116.98C435.333 123.827 433.669 130.558 431.34 137.069C430.909 138.399 430.471 139.726 430.024 141.048C445.463 150.183 459.279 161.818 470.907 175.48C473.702 178.797 476.317 182.264 478.812 185.812C485.703 173.834 491.374 161.194 495.742 148.084C499.408 136.44 501.634 123.942 499.686 111.759C498.445 104.234 496.212 96.9064 493.048 89.9671C488.965 80.7853 483.289 72.3985 476.283 65.1948C467.62 56.4064 456.956 49.8478 445.205 46.0801C432.378 42.1303 418.841 41.046 405.55 42.904C399.784 43.5805 394.099 44.8245 388.577 46.6177C385.051 47.8665 381.619 49.3677 378.308 51.1097C370.09 55.4201 362.132 60.2087 354.475 65.4508C347.192 70.3216 340.062 75.4177 333.037 80.6521C330.484 82.5533 327.946 84.4756 325.424 86.4189L325.028 86.7227L325.018 86.7312L324.914 86.8114L324.204 87.3627L323.052 88.2587C322.552 88.6495 322.055 89.0403 321.557 89.4329C322.262 92.4236 322.369 95.5243 321.871 98.5565C321.373 101.589 320.28 104.492 318.655 107.1C322.54 105.53 326.435 103.997 330.342 102.501Z" fill="black"/>
<path d="M255.797 143.729C254.932 143.784 254.074 143.545 253.362 143.05C252.65 142.556 252.127 141.835 251.877 141.005C251.627 140.175 251.665 139.284 251.986 138.479C252.306 137.674 252.89 137.001 253.641 136.569C253.641 136.569 281.771 118.681 297.006 112.626C328.518 100.096 380.602 76.3869 410.713 86.4989C444.281 97.7629 432.838 142.025 401.384 141.966C349.355 141.856 285.954 143.79 255.797 143.729Z" fill="#F78CB6"/>
<path d="M255.797 146.251C254.819 146.259 253.852 146.048 252.966 145.633C252.081 145.218 251.3 144.61 250.68 143.854C250.061 143.097 249.619 142.211 249.387 141.261C249.154 140.311 249.138 139.322 249.339 138.365C249.625 137.42 250.1 136.543 250.736 135.787C251.371 135.031 252.154 134.412 253.036 133.968C256.584 131.735 260.159 129.545 263.76 127.398C269.563 123.924 275.436 120.535 281.405 117.342C287.107 114.288 292.971 111.549 298.972 109.138C305.64 106.457 312.284 103.714 318.962 101.059C326.369 98.1146 333.81 95.2661 341.345 92.6549C348.954 90.0181 356.651 87.6135 364.467 85.6781C371.905 83.7705 379.486 82.4748 387.135 81.804C393.874 81.165 400.671 81.5429 407.298 82.9252C413.592 84.25 419.439 87.1716 424.277 91.4091C428.328 95.0912 431.225 99.8678 432.618 105.161C433.907 110.263 433.866 115.61 432.5 120.692C431.127 125.824 428.528 130.545 424.926 134.45C421.158 138.507 416.379 141.491 411.08 143.097C408.189 143.958 405.195 144.423 402.179 144.478C397.865 144.572 393.54 144.478 389.226 144.495C380.064 144.527 370.905 144.6 361.748 144.715C352.561 144.829 343.375 144.962 334.191 145.114C325.405 145.259 316.62 145.413 307.835 145.577C299.877 145.72 291.918 145.857 283.957 145.987C277.25 146.091 270.542 146.185 263.835 146.229C261.158 146.247 258.481 146.255 255.804 146.251C255.146 146.234 254.521 145.961 254.061 145.489C253.602 145.018 253.345 144.386 253.345 143.728C253.345 143.07 253.602 142.438 254.061 141.966C254.521 141.495 255.146 141.222 255.804 141.204C268.843 141.23 281.883 140.984 294.921 140.759C311.904 140.465 328.883 140.138 345.871 139.884C363.687 139.617 381.505 139.418 399.324 139.435C401.002 139.435 402.676 139.46 404.349 139.312C404.69 139.281 405.031 139.242 405.362 139.204C405.958 139.138 404.768 139.296 405.362 139.204C405.533 139.179 405.693 139.156 405.857 139.129C406.562 139.015 407.264 138.877 407.956 138.713C409.253 138.408 410.527 138.015 411.769 137.535C411.957 137.463 412.95 137.129 412.18 137.375C412.473 137.266 412.758 137.138 413.034 136.992C413.636 136.709 414.228 136.405 414.81 136.079C415.902 135.457 416.955 134.768 417.963 134.018C418.097 133.919 418.54 133.656 417.927 134.048C418.05 133.97 418.164 133.861 418.278 133.77C418.509 133.583 418.739 133.391 418.961 133.197C419.447 132.777 419.922 132.343 420.379 131.89C421.246 131.02 422.065 130.104 422.833 129.147C423.175 128.734 422.484 129.628 422.798 129.195C422.885 129.075 422.968 128.959 423.06 128.841C423.235 128.606 423.405 128.368 423.572 128.126C423.932 127.606 424.273 127.074 424.596 126.531C425.221 125.492 425.782 124.416 426.276 123.31C426.341 123.181 426.398 123.047 426.446 122.911C426.245 123.61 426.346 123.156 426.416 122.979C426.522 122.711 426.629 122.441 426.732 122.17C426.95 121.585 427.15 120.992 427.332 120.392C427.682 119.243 427.962 118.074 428.169 116.891C428.211 116.656 428.247 116.42 428.285 116.183C428.322 115.946 428.484 115.591 428.274 116.285C428.303 116.144 428.321 116.001 428.326 115.857C428.397 115.242 428.448 114.623 428.479 114C428.538 112.806 428.52 111.609 428.426 110.416C428.403 110.132 428.376 109.847 428.344 109.563C428.344 109.419 428.326 109.276 428.293 109.136C428.522 109.735 428.348 109.508 428.305 109.24C428.208 108.626 428.1 108.013 427.964 107.406C427.702 106.231 427.36 105.077 426.94 103.95C426.856 103.671 426.749 103.4 426.619 103.139C427.04 103.849 426.557 103.004 426.465 102.798C426.197 102.22 425.908 101.651 425.598 101.091C425.013 99.9837 424.324 98.9345 423.54 97.9576C424.062 98.5771 423.385 97.7767 423.264 97.6299C423.064 97.3927 422.861 97.1571 422.654 96.9267C422.199 96.4181 421.724 95.9278 421.229 95.4556C420.762 95.0084 420.279 94.5778 419.78 94.1636C419.639 94.0459 418.784 93.382 419.388 93.8377C419.075 93.6021 418.761 93.3683 418.441 93.1413C417.243 92.3008 415.988 91.5441 414.686 90.8766C414.028 90.5353 413.36 90.2167 412.682 89.9209C412.576 89.8748 411.981 89.629 412.587 89.8765L412.054 89.6597C411.631 89.4925 411.205 89.3321 410.776 89.1785C409.363 88.6742 407.923 88.2475 406.463 87.9002C405.047 87.5588 403.613 87.2926 402.171 87.0844C402.041 87.0656 401.403 86.9837 402.106 87.0724L401.55 87.0025C401.175 86.9581 400.801 86.9171 400.427 86.8796C399.604 86.7965 398.78 86.7305 397.954 86.6816C394.62 86.497 391.279 86.5283 387.949 86.7755C386.195 86.8984 384.444 87.069 382.698 87.2875L382.058 87.3677C381.967 87.3796 381.251 87.4735 381.873 87.3899C381.443 87.4479 381.02 87.5093 380.583 87.5708C379.643 87.7096 378.705 87.8581 377.767 88.0162C370.201 89.346 362.724 91.1415 355.379 93.3922C340.576 97.821 326.18 103.496 311.871 109.3C308.676 110.595 305.482 111.892 302.288 113.191C300.803 113.791 299.318 114.387 297.832 114.98C297.532 115.099 297.233 115.219 296.934 115.342L296.489 115.526C295.956 115.748 297.027 115.294 296.489 115.526C295.806 115.82 295.134 116.116 294.461 116.422C288.51 119.127 282.75 122.26 277.062 125.467C271.751 128.466 266.496 131.563 261.297 134.757C259.681 135.745 258.068 136.742 256.461 137.745L255.218 138.527L254.949 138.697L254.899 138.728C254.845 138.764 254.785 138.802 254.729 138.831C254.501 138.991 254.523 138.968 254.793 138.762C254.703 138.837 254.623 138.916 254.534 138.999C254.387 139.145 254.182 139.539 254.495 138.999C254.414 139.138 254.324 139.278 254.246 139.412C253.979 139.843 254.317 138.9 254.261 139.389C254.251 139.484 254.109 139.747 254.152 139.837L254.203 139.469C254.193 139.571 254.188 139.672 254.188 139.773C254.215 140.114 254.017 140.186 254.141 139.708C254.112 139.82 254.217 140.049 254.239 140.153L254.281 140.3C254.374 140.553 254.345 140.493 254.194 140.129C254.194 140.247 254.356 140.433 254.409 140.535L254.493 140.667C254.647 140.883 254.608 140.836 254.379 140.527C254.399 140.633 254.635 140.791 254.706 140.868C255.066 141.257 254.23 140.609 254.706 140.868C254.841 140.963 254.985 141.044 255.136 141.111C255.119 141.129 254.59 140.94 255.169 141.111C255.34 141.162 255.51 141.194 255.693 141.228C255.025 141.095 255.619 141.196 255.778 141.199C256.115 141.191 256.45 141.249 256.764 141.372C257.078 141.495 257.364 141.68 257.605 141.915C257.847 142.15 258.038 142.431 258.169 142.742C258.3 143.052 258.368 143.386 258.368 143.723C258.368 144.06 258.3 144.393 258.169 144.704C258.038 145.014 257.847 145.295 257.605 145.531C257.364 145.766 257.078 145.95 256.764 146.073C256.45 146.196 256.115 146.255 255.778 146.246L255.797 146.251Z" fill="#F78CB6"/>
<path d="M370.688 88.7586C380.46 85.5131 390.887 84.7592 401.024 86.5656C402.231 86.9033 403.256 87.7045 403.876 88.7946C404.495 89.8847 404.658 91.1753 404.33 92.3853C403.967 93.576 403.161 94.5821 402.078 95.1967C400.996 95.8114 399.719 95.9877 398.51 95.6894C398.01 95.5785 397.504 95.4964 396.995 95.4437H396.937C396.595 95.4044 396.254 95.3651 395.923 95.3293C394.837 95.2155 393.75 95.1353 392.661 95.0887C390.347 94.9851 388.028 95.025 385.719 95.2081C385.176 95.2508 384.633 95.3003 384.09 95.36C383.826 95.3873 383.56 95.4232 383.293 95.4522C382.158 95.6348 381.027 95.8157 379.901 96.0495C377.633 96.5259 375.397 97.1397 373.204 97.8876C371.994 98.2126 370.705 98.0482 369.616 97.4298C368.527 96.8113 367.725 95.7888 367.384 94.5835C367.078 93.3739 367.252 92.0932 367.867 91.0081C368.483 89.9229 369.493 89.1172 370.688 88.7586V88.7586Z" fill="#FFD2D9"/>
<path d="M404.034 154.441C405.283 154.462 406.474 154.968 407.356 155.85C408.239 156.733 408.744 157.924 408.765 159.172V159.729C408.765 160.983 408.267 162.187 407.38 163.074C406.493 163.961 405.289 164.46 404.034 164.46C402.78 164.46 401.576 163.961 400.689 163.074C399.802 162.187 399.304 160.983 399.304 159.729V159.172C399.316 157.921 399.818 156.725 400.703 155.841C401.588 154.956 402.784 154.454 404.034 154.441V154.441Z" fill="white"/>
<path d="M328.759 188.22C329.868 186.953 330.952 185.667 332.01 184.359C332.336 183.955 332.655 183.549 332.977 183.142L333.092 183.001L333.187 182.873C333.657 182.253 334.124 181.634 334.583 181.007C336.611 178.241 338.517 175.391 340.301 172.455C342.048 169.578 343.671 166.631 345.17 163.615C345.917 162.107 346.634 160.584 347.319 159.046C347.501 158.633 347.68 158.217 347.863 157.802L347.935 157.631L347.991 157.495C348.332 156.655 348.674 155.817 349.003 154.972C349.364 153.782 350.169 152.776 351.251 152.162C352.333 151.548 353.609 151.374 354.816 151.675C357.048 152.397 359.083 155.025 358.12 157.495C355.666 163.767 352.72 169.836 349.309 175.643C357.187 172.752 365.192 170.249 373.325 168.134C374.528 167.82 375.807 167.992 376.885 168.614C377.962 169.235 378.752 170.256 379.083 171.455C379.413 172.654 379.259 173.936 378.652 175.022C378.045 176.107 377.035 176.911 375.84 177.258C366.607 179.66 357.516 182.577 348.609 185.994C358.714 186.757 368.722 189.449 378.475 192.234C379.084 192.391 379.655 192.667 380.155 193.046C380.656 193.426 381.076 193.902 381.391 194.445C381.705 194.989 381.909 195.59 381.989 196.213C382.069 196.836 382.025 197.468 381.858 198.074C381.691 198.68 381.405 199.246 381.017 199.74C380.629 200.234 380.147 200.646 379.598 200.952C379.049 201.257 378.445 201.45 377.821 201.52C377.196 201.59 376.564 201.535 375.962 201.358C368.724 199.147 361.361 197.368 353.911 196.031C353.492 195.965 353.071 195.9 352.648 195.837L352.136 195.765L352.015 195.75C351.102 195.652 350.193 195.536 349.285 195.454C347.467 195.284 345.641 195.192 343.823 195.173C342.006 195.154 340.183 195.217 338.362 195.372C337.804 195.42 337.246 195.483 336.688 195.543L336.498 195.562L336.275 195.598C335.299 195.756 334.327 195.927 333.36 196.13C332.354 196.387 331.292 196.314 330.33 195.923C329.368 195.531 328.557 194.842 328.016 193.956C327.521 193.043 327.327 191.998 327.46 190.968C327.593 189.938 328.048 188.977 328.759 188.22V188.22Z" fill="white"/>
<path d="M389.105 160.189C390.353 160.211 391.544 160.716 392.427 161.599C393.31 162.482 393.816 163.674 393.837 164.922V165.478C393.814 166.718 393.305 167.898 392.42 168.767C391.535 169.635 390.345 170.121 389.105 170.121C387.866 170.121 386.676 169.635 385.791 168.767C384.906 167.898 384.397 166.718 384.374 165.478V164.922C384.386 163.671 384.888 162.474 385.773 161.589C386.657 160.705 387.853 160.202 389.105 160.189V160.189Z" fill="white"/>
</svg>
