<?xml version="1.0" encoding="UTF-8"?>
<!DOCTYPE svg PUBLIC "-//W3C//DTD SVG 1.1//EN" "http://www.w3.org/Graphics/SVG/1.1/DTD/svg11.dtd">
<!-- Creator: CorelDRAW 2020 (64-Bit) -->
<svg xmlns="http://www.w3.org/2000/svg" xml:space="preserve" width="512px" height="512px" version="1.1" style="shape-rendering:geometricPrecision; text-rendering:geometricPrecision; image-rendering:optimizeQuality; fill-rule:evenodd; clip-rule:evenodd"
viewBox="0 0 512 512"
 xmlns:xlink="http://www.w3.org/1999/xlink"
 xmlns:xodm="http://www.corel.com/coreldraw/odm/2003">
 <defs>
  <style type="text/css">
   <![CDATA[
    .fil9 {fill:black}
    .fil3 {fill:#545778}
    .fil4 {fill:#55435C}
    .fil6 {fill:#79A6DA}
    .fil0 {fill:#BDCEEC}
    .fil5 {fill:#C89F8F}
    .fil1 {fill:#F48EB7}
    .fil7 {fill:#F9D9C5}
    .fil2 {fill:#FAD881}
    .fil8 {fill:#FEFEFE}
   ]]>
  </style>
 </defs>
 <g id="Слой_x0020_1">
  <metadata id="CorelCorpID_0Corel-Layer"/>
  <g id="_1191969257696">
   <path class="fil0" d="M417.22 117.87l-14.45 0.65c-1.5,0.64 -26.62,3.37 -31.2,4.13 -6.84,1.14 -12.25,0.98 -13.23,4.67 -2.44,9.21 -9.53,69.62 -9.85,79.65l3.43 9.56 3.12 -0.45c2.26,-1.67 2.02,0.77 5.04,-2.08l7.33 -6.98c1.48,-1.35 2.5,-1.69 3.35,-3.4 -6.75,-6.29 -10.55,-14.74 -5.73,-23.55 2.27,-4.15 5.78,-5.57 1.93,-10.95 -2.04,-2.87 -5.6,-6.39 -4.47,-11.96 2.09,-10.2 23.16,-16.71 34.48,-9.36 5.88,3.82 1.82,9.21 4.83,11.63 4.9,2.19 12.06,-6.73 19.4,0.47 5.01,4.92 2.87,12.75 0.94,19.46 -5.21,18.04 14.11,20.77 -4.64,37.31 -9.45,8.34 -0.52,9.24 -1.96,18.06 -2.11,12.98 -27.11,8.1 -29.63,-4.69 -1.51,-7.7 9.78,-12.99 0.58,-16.28 -1.92,0.56 -2.5,2.16 -4.54,4.72 -1.46,1.83 -2.67,3.35 -4.25,4.97l-8.95 9.49c1.74,4.49 2.06,3.22 -1.37,7.31 -2,2.38 -3.5,4.28 -5.62,6.13 -4.22,3.68 -8.84,6.81 -16.92,6.4 0,3.73 -0.96,7.23 3.08,7.46 2,-2.7 1.49,-3.37 5.94,-3.91 2.87,-0.35 7.24,-0.17 10.24,-0.15 7.15,0.03 13.78,0.6 20.98,0.22 8.27,-0.44 21.17,-1 29.46,0.38 3.14,0.52 5.76,1.76 8.65,2.27 8.31,-0.32 11.43,-1.3 13.32,-8.49 3.14,-11.92 7.96,-41.97 10,-54.54 1.68,-10.33 9.76,-71.07 7.96,-77.63 -1.84,-2.71 -33.55,-1.15 -37.25,-0.52z"/>
   <path class="fil1" d="M235.23 134.73c-1.81,6.03 -3.24,4.09 -18.42,5.19 -18.38,1.34 -37.03,1.88 -55.11,-1.93 -4.37,-0.93 -6.62,-0.64 -6.85,-5.07 -1.24,-7.05 0.67,-43.97 1.9,-51.69 6.59,-1.87 71.66,-1.63 79.08,0.04 0.8,3.77 0.3,49.61 -0.6,53.46zm-16.46 -73.8l-45.02 0 -34.3 1.27c-4.12,0.13 -7.06,-0.59 -7.7,3.35 -1.33,8.09 -2.82,55.99 -2.88,66.51 -0.05,6.97 -2.03,16.49 3.19,19.69 4.37,2.68 33.04,5.18 40.45,5.63 14.01,0.85 30.99,1.12 44.91,-0.26 6.61,-0.65 15.72,-0.06 22.85,-0.17 6.61,-0.1 16.44,1.33 19.35,-3.48 2.96,-4.88 1.85,-14.88 2.01,-21.41 0.17,-7.68 0.4,-15.35 0.49,-23.03 0.65,-51.46 3.74,-46.32 -10.06,-46.84 -5.76,-0.21 -31.69,-0.7 -33.29,-1.26z"/>
   <path class="fil2" d="M297.38 169.29c0.46,6 -1.07,2.4 -6.76,9.55 -10.57,13.26 -13.93,46.75 -15.99,63.86 -0.59,4.84 -1.11,9.77 -1.27,14.73 -0.21,6.53 -0.54,9.23 2.87,13.02 6.07,3.17 18.8,2.59 26.46,2.78 4.95,0.12 9.9,0.08 14.84,0.02 6.62,-0.09 7.76,0.65 12.8,-2l0.97 -2.95c0.36,-5.76 0.37,-14.84 0.09,-20.64 -0.16,-3.55 -0.06,-1.2 -1.42,-3.68l-4.09 -11.28c-1.84,-5.1 -3.61,-10.07 -5.28,-15.19 -1.51,-4.61 -5.5,-12.57 -2.66,-14.3 3.83,-0.6 4.08,0.27 5.05,3.2l5.85 17.19c0.83,2.39 7.15,18.1 6.47,20.29 -0.62,2.01 -0.86,0.67 -1.52,2.79 1.71,0.75 2.78,2.47 4.66,3.64 2.12,1.32 3.62,1.67 6.39,2.46 8.08,0.41 12.7,-2.72 16.92,-6.4 2.12,-1.85 3.62,-3.75 5.62,-6.13 3.43,-4.09 3.11,-2.82 1.37,-7.31 -2.12,-1.81 -4.17,-5.4 -5.75,-8.2 -1.5,-2.67 -2.9,-6.35 -4.51,-8.78l-3.45 0.12 -3.12 0.45 -3.43 -9.56c-1.54,-5.86 -9.11,-17.13 -13.2,-22.05 -7.12,-8.58 -18.91,-10.84 -19.14,-15.86l-6.77 -1.75c-6.06,3.03 -4.22,3.17 -12,1.98z"/>
   <path class="fil3" d="M231.94 247.56c-1.98,1.19 -37.49,1.42 -42.84,1.48l-1.09 -1.48 -0.45 1.53c-6.22,0.34 -55.3,1.61 -57.06,0.33 -3.15,1.3 -24.19,0.86 -28.98,0.59l-13.99 0.26c1.01,8.94 -1.07,17.61 -0.92,26.95 2.84,-1.71 1.36,-1.8 7.2,-1.14 3.73,0.42 3.75,0.13 5.66,2.01l2.17 0.23c2.85,0.04 9.07,-1.57 12.77,-1.97 14.46,-1.58 28.68,-1.03 43.31,-1.3 10.94,-0.2 50.13,-1.69 57.38,-1.17 0.74,-1.92 0.55,-2.98 2.85,-3.39 1.32,-0.24 4.9,-0.06 6.45,-0.06 3.65,0.01 10.02,0.54 12.78,0.12 3.41,0.47 10.66,-1.24 14.46,-1.8 2.41,-0.36 4.67,-0.76 7.05,-1.09 8.1,-1.12 6.2,-1.8 5.36,-11.59 -0.98,-11.2 0.05,-9.17 -15.08,-8.73 -0.7,-0.66 -1.09,0.97 -0.38,-1.07l-0.55 -0.21 -0.88 1.36c-4.05,0.17 -11.61,0.98 -15.22,0.14z"/>
   <path class="fil4" d="M125.61 174.79c-6.7,0.72 -6.94,2.47 -7.42,9.15l-1.26 32.05c-0.12,8.06 3.34,6 10.76,5.96 22.03,-0.09 44,-0.3 66.02,-0.37 7.7,-0.03 6.85,-0.98 7.44,-8.69 0.42,-5.49 0.75,-10.89 0.91,-16.37 0.15,-5.26 0.23,-10.54 0.18,-15.87 -0.03,-2.7 0.24,-4.84 -2.51,-5.44l-41.85 -0.22c-9.85,-0.03 -23.09,-1.19 -32.27,-0.2z"/>
   <path class="fil0" d="M161.91 228.88c-1.9,3.82 -8.62,1.77 -6.3,-3.37 1.74,-3.83 9.08,-2.23 6.3,3.37zm-36.3 -54.09c9.18,-0.99 22.42,0.17 32.27,0.2l41.85 0.22c2.75,0.6 2.48,2.74 2.51,5.44 0.05,5.33 -0.03,10.61 -0.18,15.87 -0.16,5.48 -0.49,10.88 -0.91,16.37 -0.59,7.71 0.26,8.66 -7.44,8.69 -22.02,0.07 -43.99,0.28 -66.02,0.37 -7.42,0.04 -10.88,2.1 -10.76,-5.96l1.26 -32.05c0.48,-6.68 0.72,-8.43 7.42,-9.15zm18.96 64.71l3.59 0.09c2.19,-3.09 0.63,-2.74 5.61,-2.91 3.24,-0.11 4.95,-0.99 7.85,-0.34 4.26,7.64 -6.51,5.09 -10.66,6.74 -1.3,0.55 -8.99,1.46 -11.47,2.09 -1.77,0.44 -3.4,0.89 -5.24,1.45 -2.65,0.8 -3.3,0.61 -3.75,2.8 1.76,1.28 50.84,0.01 57.06,-0.33l0.45 -1.53c-2.27,-4.84 -12.72,-5.73 -19.27,-6.23l-0.16 -4.39c6.5,-0.65 34.34,-2.17 38.16,-3.79 4.49,-1.9 4.07,-10.89 4.61,-16.66 1.25,-13.53 1.28,-26.15 -0.63,-39.58 -1.15,-8.05 -2,-9.43 -10.36,-10.42 -22.16,-2.63 -58.26,-3.77 -80.24,-1.08 -7.63,0.93 -10.58,1.65 -11.75,9.21l-1.27 19.86c-0.65,8.33 -2.43,33.75 2,39.07 3.08,3.7 10.42,3.95 16.52,4.52 5.94,0.54 12.93,1.63 18.95,1.43z"/>
   <path class="fil1" d="M370.76 203.62c1.59,-0.59 3.8,-3.29 5.15,-4.48 2,-1.75 3.52,-2.94 5.42,-4.82 2.59,-2.57 6.59,-8.08 11.86,-8.36 1.39,-4.41 6.77,-11.05 9.39,-13.34 2.11,-3.22 1.21,-4.87 4.47,-7.84 2.45,-2.22 5.45,-3.56 8.67,-1.44 0.95,4.96 -5.53,10.34 -7.84,12.24 0.1,2.52 -2.35,6.24 -3.7,8.33 -0.87,1.34 -4.48,6.47 -5.75,6.97 1.52,10.34 -12.59,20.37 -11.94,22.88 9.2,3.29 -2.09,8.58 -0.58,16.28 2.52,12.79 27.52,17.67 29.63,4.69 1.44,-8.82 -7.49,-9.72 1.96,-18.06 18.75,-16.54 -0.57,-19.27 4.64,-37.31 1.93,-6.71 4.07,-14.54 -0.94,-19.46 -7.34,-7.2 -14.5,1.72 -19.4,-0.47 -3.01,-2.42 1.05,-7.81 -4.83,-11.63 -11.32,-7.35 -32.39,-0.84 -34.48,9.36 -1.13,5.57 2.43,9.09 4.47,11.96 3.85,5.38 0.34,6.8 -1.93,10.95 -4.82,8.81 -1.02,17.26 5.73,23.55z"/>
   <path class="fil5" d="M50.98 301.71c0.6,-2.58 0.64,-23.5 0.71,-28.94 0.04,-2.96 -0.54,-6.96 2.86,-7.16 3.67,-0.21 3.06,3.77 2.98,6.65 -0.18,6.07 -0.98,26.99 -0.27,30.37l5.13 -0.04c23.35,-0.92 25.13,3.14 24.3,-22.6l-0.08 -2.77c-0.15,-9.34 1.93,-18.01 0.92,-26.95l13.99 -0.26 0.22 -2.2 -1.17 1.99 -13.3 -0.05c-1.93,-5.84 -6.44,-6.99 -12.51,-8.07 -2.04,-0.35 -4.16,-0.36 -4.54,-1.78 -0.06,-0.22 -0.2,-0.25 -0.3,-0.38 -1.04,1.69 0.06,0.87 -2.03,1.05 -1.86,0.15 -18.26,-4.91 -27.05,-3.43 -4.31,0.73 -8.56,2.94 -10.09,6.23 -1.57,3.36 -0.59,4.17 0.13,6.58 0.6,2.02 -1.85,28.74 -0.97,40.25 0.4,5.2 2.71,7.91 6.92,9.45 3.42,1.26 10.24,2.49 14.15,2.06z"/>
   <path class="fil6" d="M276.3 339.12l3.99 0.25c-0.73,-4.08 1.72,-32.76 2.28,-40.73 0.21,-3.14 0.78,-11.44 5.33,-6.94 1.69,2.3 -0.44,20.08 -0.7,24.36 -0.38,6.24 -0.23,19.49 -2.53,23.76l11.39 0.62c-1.54,-2.02 -1.59,-2.65 -1.45,-5.69l1.04 -21.05c0.25,-4.59 0.43,-9.18 0.62,-13.8 0.21,-4.95 0.48,-9.93 5.76,-6.53 0.78,1.13 -1.06,30.81 -1.34,36.2 -0.14,2.72 0.06,7.93 -1.11,9.69l-1.07 1.23 1.13 0.64c2.62,-0.9 5.86,-0.48 8.68,-0.48 1.46,0.65 0.59,0.1 1.24,1.65 0.21,0.49 -0.1,0.49 0.36,1.47l-0.07 -3.17 5.24 -0.22c-2.69,-4.42 -2.69,-29.58 -2.78,-37.41 -0.04,-3.35 -1.37,-10.08 2.69,-10.26 2.58,-0.11 2.94,1.15 3.06,3.57l0.35 19.46c0.15,4.97 2.24,21.33 0.5,24.52l11.11 -1.2c3.99,-3.81 2.73,-7.86 1.84,-14.11 -0.77,-5.47 -1.01,-11.2 -1.25,-16.84 -0.51,-12.01 -0.9,-24.88 -0.28,-36.86 -5.04,2.65 -6.18,1.91 -12.8,2 -4.94,0.06 -9.89,0.1 -14.84,-0.02 -7.66,-0.19 -20.39,0.39 -26.46,-2.78 -1.32,8.74 -11.95,61.34 -8.9,66.27 1.11,1.65 2.13,1.44 4.6,1.74 1.47,0.19 2.92,0.38 4.37,0.66z"/>
   <path class="fil2" d="M388.05 421.48c9.32,-3.03 8.54,11.98 -2.09,15.44 -5.48,1.78 -7.87,-2.49 -5.22,-7.31 1.85,-3.37 3.3,-6.83 7.31,-8.13zm-23.58 1.02c0.7,-3.95 3.59,-7.2 8.33,-6.5 0.84,1.48 1.12,2.66 0.82,4.49 -2.74,1.47 -5.73,1.72 -9.15,2.01zm-2.27 -20.86c6.06,-2.78 8.73,6.3 3.65,8.55 -5.12,2.25 -10.54,-5.39 -3.65,-8.55zm35.6 3.6l3.62 1.99c4.32,-1.78 9.18,0.15 8.27,5.69 -0.75,4.53 -4.83,7.49 -9.14,4.57l-1.79 1.51c-5.5,3.78 -10.73,-3.34 -9.51,-10.09 -1.48,-0.57 -1.56,-0.8 -3.11,-0.95 -3.95,2.28 -10.74,2.05 -10.95,-3.17 -0.12,-3.09 1.68,-4.19 3.46,-5.4 2.56,-1.75 2.68,-1.3 6.36,-1.88 2.47,-1.13 5,-4.79 9.5,-1.64 1.32,0.92 2.53,2.4 2.93,4.25 0.71,3.26 -0.85,3.09 0.36,5.12zm-29.36 44.59l8.18 0 12.02 -3.62c16.99,-7.12 35.37,-23.67 30.45,-42.69 -1.89,-7.35 -7.33,-13.28 -14.34,-15.34 -14.45,-4.24 -55.83,9.38 -62.33,26.14 -4.84,12.49 10.28,14.3 12.71,15.55 -1.27,5.8 -1.41,9.94 2.33,13.81 1.45,1.5 2.71,2.79 4.84,3.86 1.89,0.95 4.42,1.38 6.14,2.29z"/>
   <path class="fil6" d="M226.07 96.88c-1.66,1.14 -8.95,0.38 -11.26,0.18 -1.69,-0.15 -3.18,-0.29 -4.03,-1.57 -1.1,-1.64 -0.64,-2.74 0.48,-3.73 1.98,-1.73 7.67,-0.36 10.6,-0.27 1.81,0.05 3.81,-0.02 4.68,1.14 1.09,1.44 0.68,3.45 -0.47,4.25zm-46.28 -7.16c0.77,1.15 0.72,3.12 -0.38,3.98 -1.29,1.01 -13.98,0.73 -15.4,-1.08 -1.25,-1.58 -0.89,-3.29 0.47,-4.19 1.16,-0.77 13.73,-1.06 15.31,1.29zm-24.94 43.2c3.55,-3.9 5.84,-6.4 9.88,-10.38 3.3,-3.26 7.34,-7 9.81,-10.36 -1.59,-0.11 -5.48,-0.02 -6.69,-0.35 -1.91,-0.54 -2.97,-3.09 -1.28,-4.83 1.63,-1.69 11,-0.28 13.91,-0.74 11.06,-10.18 7.69,-13.19 18.41,0.16 1.63,2.03 6.07,8.57 7.78,9.72 1.08,-2.36 2.34,-2.63 4.98,-1.84 1.33,-1.75 5.8,-4.81 8.43,-3.02 2.14,1.47 10.66,15.68 12.49,19.28 0.35,0.7 0.62,1.31 1.03,2.02 0.64,1.08 0.97,1.46 1.63,2.15 0.9,-3.85 1.4,-49.69 0.6,-53.46 -7.42,-1.67 -72.49,-1.91 -79.08,-0.04 -1.23,7.72 -3.14,44.64 -1.9,51.69z"/>
   <path class="fil3" d="M216.87 277.94c-1.31,5.34 4.28,56.65 5.34,65.76 1.2,10.35 2.43,21.2 4,31.65 1.28,8.53 1.55,23.93 9.17,26.16 5.9,1.71 9.12,-2.84 10.07,-7.45 0.98,-4.77 -0.03,-11.3 -0.98,-16.08 -3.97,-19.93 -10.06,-76.33 -10.06,-96.25 -0.8,-1.02 -0.66,-3.7 -0.73,-5.43 -3.18,-0.01 -14.22,0.52 -16.45,-0.4l-0.36 2.04z"/>
   <path class="fil5" d="M355.77 275.65c-0.04,6.34 -2.85,19.83 -3.99,26.75 -1.45,8.81 -2.82,17.58 -4.21,26.46 -1.37,8.7 -8.46,47.64 -7.39,53.24 0.69,0.34 0.52,-1.4 0.68,1.16 1.33,1.62 3.4,2.89 6.67,1.92 5.6,-1.68 7.95,-13.31 9.16,-18.43l18.08 -91.13c-2.94,-2.43 -13.61,-0.03 -18.03,-1.86l-0.97 1.89z"/>
   <path class="fil5" d="M56.31 348.47l11.14 2.4c2.53,0.8 10.68,2.12 12.03,2.85l9.32 0.03c8.02,-1.36 9.23,-3.23 14.64,-6.24 1.2,-1.47 3.48,-3.5 5.01,-4.53 1.91,-2.78 13.37,-12.31 4.83,-16.91 -2.67,-1.44 -18.41,-4.88 -22.37,-5.36l-21.54 -5.04c-4.26,-0.42 -7.77,-1.8 -12.63,-1.93 -0.3,5.02 -1.24,31.57 -0.43,34.73z"/>
   <path class="fil5" d="M399.08 276.74l2.97 29.28c1.09,13.15 8.64,77.46 15.17,80.86 4.54,0.43 7.95,-3.01 9.51,-5.94 4.77,-8.95 -0.59,-26.87 -1.73,-39.3 -2.96,-0.94 -2.54,-3.96 -3.12,-7.37 -0.48,-2.81 -0.93,-5.69 -1.37,-8.36 -2.38,-14.49 -6.93,-38.17 -8.28,-50.62l-12.31 0.19c-1.4,0.48 -0.81,-0.91 -0.84,1.26z"/>
   <path class="fil0" d="M182.57 114.24c2.29,-1.91 4.82,-0.26 4.61,2.41 -0.12,1.56 -7.6,14.19 -8.88,14.87 -2.32,1.24 -4.37,-0.6 -4.56,-2.58 -0.21,-2.26 8.36,-14.31 8.83,-14.7zm6.5 -1.09c-1.43,-5.17 3.36,-6.11 4.13,-6.09 2.07,0.03 2.22,1.47 2.92,3.13 0.64,1.51 1.09,2.45 1.73,3.91 2.33,5.3 4.82,11.72 5.31,17.57 0.37,4.41 0.03,6.73 -4.52,6.55 -3.38,-5.21 -7.7,-18.3 -9.57,-25.07zm-8.59 -6.89c1.27,1.41 3.36,3.13 0.89,5.32 -1.71,1.32 -4.35,0.65 -6.83,0.6 -2.47,3.36 -6.51,7.1 -9.81,10.36 -4.04,3.98 -6.33,6.48 -9.88,10.38 0.23,4.43 2.48,4.14 6.85,5.07 18.08,3.81 36.73,3.27 55.11,1.93 15.18,-1.1 16.61,0.84 18.42,-5.19 -0.66,-0.69 -0.99,-1.07 -1.63,-2.15 -0.41,-0.71 -0.68,-1.32 -1.03,-2.02 -1.83,-3.6 -10.35,-17.81 -12.49,-19.28 -2.63,-1.79 -7.1,1.27 -8.43,3.02 1.96,2.58 4.27,5.62 6.41,8.25 1.17,1.44 7.24,7.01 2.55,8.97 -2.38,0.99 -3.76,-1.16 -4.86,-2.58 -2.26,-2.93 -8.74,-10.33 -9.08,-12.8 -1.71,-1.15 -6.15,-7.69 -7.78,-9.72 -10.72,-13.35 -7.35,-10.34 -18.41,-0.16z"/>
   <path class="fil4" d="M297.38 169.29c7.78,1.19 5.94,1.05 12,-1.98 2.92,-2.9 4.23,-3.8 6.37,-7.35 2.57,-4.24 1.72,-2.48 6.51,0.77 1.34,-1.34 1.6,-0.64 2.14,-2.34 0.61,-1.95 -0.24,-1.77 0.07,-3.18 0.28,-1.27 7.39,-6.79 -0.13,-18.18 -2.15,-3.26 -5.09,-6.38 -11.11,-5.1 -5.61,1.21 -7.74,4.27 -11.05,5.55 -1.98,-1.44 -7.71,-6.95 -11.81,2.22 -3.35,7.51 1.71,11.15 4.01,13.34 -0.66,3.27 -1.38,5.88 -0.74,9.63 0.71,4.13 2.2,4.35 3.74,6.62z"/>
   <path class="fil5" d="M347.92 260.24c-1.57,8.92 -1.08,10.31 7.56,10.59l1.28 -2.12c4.47,-0.42 11.79,0.24 16.34,0.54 10.64,0.7 30.32,0.4 41.67,0.11 3.76,-0.09 5.01,-0.32 5.55,3.42 3.04,-0.8 5.4,-2.7 5.98,-5.8 1.04,-5.56 -2.36,-6.02 -3.11,-7.93 -2.89,-0.51 -5.51,-1.75 -8.65,-2.27 -8.29,-1.38 -21.19,-0.82 -29.46,-0.38 -7.2,0.38 -13.83,-0.19 -20.98,-0.22 -3,-0.02 -7.37,-0.2 -10.24,0.15 -4.45,0.54 -3.94,1.21 -5.94,3.91z"/>
   <path class="fil3" d="M84.48 398.11l0.39 -1.23c0.79,-3.21 0.04,-19.42 0.03,-23.29 -0.01,-8.73 -0.89,-16.03 -6.8,-19.57l1.38 -0.3c-1.35,-0.73 -9.5,-2.05 -12.03,-2.85 1.06,1.23 0.74,0.22 0.94,2.23l-0.35 7.39c-0.19,3.19 -0.34,6.38 -0.53,9.52 -0.39,6.77 -0.57,13.51 -1.01,20.28 -0.42,6.23 -2.24,13.25 4.62,14.75 4.86,1.06 10.73,-1.82 12.73,-5.2 0.89,-1.5 0.43,-0.62 0.63,-1.73z"/>
   <path class="fil7" d="M370.76 203.62c-0.85,1.71 -1.87,2.05 -3.35,3.4l-7.33 6.98c-3.02,2.85 -2.78,0.41 -5.04,2.08l3.45 -0.12c1.61,2.43 3.01,6.11 4.51,8.78 1.58,2.8 3.63,6.39 5.75,8.2l8.95 -9.49c1.58,-1.62 2.79,-3.14 4.25,-4.97 2.04,-2.56 2.62,-4.16 4.54,-4.72 -0.65,-2.51 13.46,-12.54 11.94,-22.88 -0.51,-3.16 -2.02,-4.7 -5.24,-4.92 -5.27,0.28 -9.27,5.79 -11.86,8.36 -1.9,1.88 -3.42,3.07 -5.42,4.82 -1.35,1.19 -3.56,3.89 -5.15,4.48z"/>
   <path class="fil5" d="M427.14 341.42c3.12,5.77 11.4,20.84 18.92,17.44 4.71,-2.13 1.27,-9.63 -0.12,-13.87 -1.59,-4.83 -3.17,-8.97 -4.92,-13.55 -8,-20.95 -14.67,-32.84 -22.66,-51.32 -0.75,1.46 3.93,26.57 4.58,30.51 1.34,8.16 4.98,23.67 4.2,30.79z"/>
   <path class="fil4" d="M50.98 301.71l-0.11 12.58c-1.7,0.23 -1.47,0.56 -1.88,0.85 2.88,-0.39 1.79,0.47 1.68,7.27l-0.49 24.34 -1.8 -0.12c2.02,4.07 -5.39,50.64 -2.65,53.63 5.12,4.05 5.33,-5.16 5.63,-8.75l2.39 -29.3c0.24,-2.61 0.44,-5.23 0.63,-7.84 0.24,-3.24 -0.47,-4.74 1.93,-5.9 -0.81,-3.16 0.13,-29.71 0.43,-34.73 -0.05,-2.67 -0.59,-9.06 0.52,-11.11 -0.71,-3.38 0.09,-24.3 0.27,-30.37 0.08,-2.88 0.69,-6.86 -2.98,-6.65 -3.4,0.2 -2.82,4.2 -2.86,7.16 -0.07,5.44 -0.11,26.36 -0.71,28.94z"/>
   <path class="fil1" d="M312.41 373.55c-0.55,2.48 -1.44,1.55 -1.33,4.58l2.31 14.46c1.31,7.92 2.16,12.03 11.31,11.74 4.6,-0.14 25.59,-4.02 21.5,-11.81 -1.2,-2.3 -4.48,-2.76 -6.33,-4.65 -3.18,-0.92 -3.15,2.64 -7.05,1.27 -1.7,-1.09 -2.7,-2.82 -0.77,-4.58 1.92,-1.75 3.39,-0.51 3.58,-3.91 -3.95,1.54 -4.4,3.9 -8.58,2.33 -1.92,-5.73 3.04,-5.56 7.32,-8.42 1.13,-0.75 0.52,0.38 0.76,-0.85l-3.09 -1.27c-0.11,-2.74 0.3,-7.62 -0.88,-9.53l0.51 9.68c-7.51,-0.15 -12.46,0.35 -19.26,0.96z"/>
   <path class="fil4" d="M355.48 270.83c0.45,2.74 0.68,1.65 0.29,4.82l0.97 -1.89c4.42,1.83 15.09,-0.57 18.03,1.86 3.43,-1.33 18.39,-0.26 23.2,-0.23l1.11 1.35c0.03,-2.17 -0.56,-0.78 0.84,-1.26l12.31 -0.19c1.35,12.45 5.9,36.13 8.28,50.62 0.44,2.67 0.89,5.55 1.37,8.36 0.58,3.41 0.16,6.43 3.12,7.37l2.14 -0.22c0.78,-7.12 -2.86,-22.63 -4.2,-30.79 -0.65,-3.94 -5.33,-29.05 -4.58,-30.51 -0.41,-1.44 -0.99,-2.76 -1.06,-4.78 2.5,-1.24 1.75,-0.4 3.02,-2.56 -0.54,-3.74 -1.79,-3.51 -5.55,-3.42 -11.35,0.29 -31.03,0.59 -41.67,-0.11 -4.55,-0.3 -11.87,-0.96 -16.34,-0.54l-1.28 2.12z"/>
   <path class="fil7" d="M276.52 372.91l18.52 -0.57c-0.01,-4.7 1.51,-11.22 2.3,-15.95 0.53,-3.23 2.55,-12.65 2.3,-15.26l-1.13 -0.64 -2.45 -0.05 -11.39 -0.62c-1.93,0.41 -2.74,0.54 -4.38,-0.45l-3.99 -0.25 0.22 33.79z"/>
   <path class="fil7" d="M318.91 340.26l-3.82 0.12 -5.24 0.22 0.07 3.17 2.49 29.78c6.8,-0.61 11.75,-1.11 19.26,-0.96l-0.51 -9.68c0.83,-4.32 -1.09,-18.21 -1.14,-23.85l-11.11 1.2z"/>
   <path class="fil1" d="M276.52 372.91c-2.36,3.88 -1.97,3.52 -1.97,8.86 0.01,10.65 -0.27,12.67 5.35,15.11 2.59,1.13 4.79,1.92 7.58,2.66 19.49,5.15 28.29,-2.65 15.34,-11.08 -3.18,0.97 -3.36,3.33 -7.18,2.32 -3.28,-3.14 0,-5.61 3.16,-6.77l-0.48 -3.36c-3.48,0.54 -4,2.37 -7.51,0.77 -0.83,-2.69 -0.66,-3.86 1.94,-4.99 5.35,-2.34 5.47,-0.71 4.76,-2.95l-2.47 -1.14 -18.52 0.57z"/>
   <path class="fil2" d="M79.48 227.73l-0.64 0.04c-6.91,1.02 -9.79,4.01 -8.92,11.75 0.1,0.13 0.24,0.16 0.3,0.38 0.38,1.42 2.5,1.43 4.54,1.78 6.07,1.08 10.58,2.23 12.51,8.07l13.3 0.05 1.17 -1.99c0.34,-4.5 2.45,-16.02 0.52,-19.64 -1.75,-2.18 -4.21,-1.05 -7.71,-1.21l-15.07 0.77z"/>
   <path class="fil5" d="M34.62 343.48l7.86 1.92 5.9 1.23 1.8 0.12 0.49 -24.34c0.11,-6.8 1.2,-7.66 -1.68,-7.27 -7.83,4.61 -12.89,9.06 -19.6,14.38 -4.55,3.6 -8.58,5.43 -6.96,9.58 1.14,2.94 8.65,3.32 12.19,4.38z"/>
   <path class="fil3" d="M62.39 302.59c2.26,0.71 5.74,0.47 8.5,0.53l-0.49 12.13 -1.03 0.42 21.54 5.04c0.19,-5.65 1.27,-12.43 2.08,-18.16 0.58,-4.07 2.48,-13.58 2.23,-17.17l0.16 -3.21c-3.88,-0.34 -6.07,-0.09 -8.69,-2.18 0.83,25.74 -0.95,21.68 -24.3,22.6z"/>
   <path class="fil6" d="M81.06 187.94c-0.81,2.72 -1.44,4.4 -1.36,7.66l0.12 2.43c2.01,0.59 4.53,2.59 4.72,4.72 0.34,3.61 -2.89,3 -5.49,2.51l0.2 8.71c0.05,0.08 8.24,4.91 2.19,7.36l-2.15 0.79 0.19 5.61 15.07 -0.77 0.28 -10.72 -0.15 -2.36c-0.33,0.47 -2.19,2.7 -2.87,3.09 -1.9,1.1 -3.2,0.44 -4.07,-1.1 -1.09,-2.2 0.68,-3.38 1.77,-4.81 1.76,-2.32 2.33,-2.83 5.54,-1.6l0.49 -4.12 0.06 -4.31 -3.9 -0.3c-1.14,-2.22 -1.07,-2.94 0.23,-5.16 1.14,-1.96 1.35,-2.78 3.48,-3.63 -0.65,-6.83 -2.41,-8.65 -9.34,-8.87 0.44,1.96 1.53,3.92 -0.43,5.2 -1.8,1.18 -2.97,-0.03 -4.58,-0.33z"/>
   <path class="fil5" d="M460.79 400.44l3.99 0.43c0.82,1.2 2.21,3.06 0.41,4.71 -1.64,1.52 -3.3,0.09 -5.27,0.64 -1.39,2.9 -4.14,7.3 -1.67,9.89 4.2,3.17 8.98,-9.5 10.08,-12.24 4.64,0.93 7.95,2.98 13.45,3.13 4.85,0.13 11.17,-1.56 6.97,-6.43 -9,-3.91 -24.36,-14.4 -36.57,-13.44 -2.57,-0.06 -4.73,0.56 -4.44,3.23 0.17,1.59 2.31,3.29 3.34,4.22 2.48,2.24 6.09,4.02 9.71,5.86z"/>
   <path class="fil4" d="M84.48 398.11l0.45 0.74c1.27,3.14 -0.52,-2.74 0.3,0.85 0.71,3.14 -1.05,26.52 0.29,28.77 1.59,1.83 2.25,1.49 4.39,0.88 2.65,-2.03 1.74,-58.21 -0.27,-67.36 -0.65,-2.99 -2.45,-5.3 -0.84,-8.24l-9.32 -0.03 -1.38 0.3c5.91,3.54 6.79,10.84 6.8,19.57 0.01,3.87 0.76,20.08 -0.03,23.29l-0.39 1.23z"/>
   <path class="fil4" d="M42.48 345.4l-7.86 -1.92c0.11,1.69 -2.11,5.28 -2.74,7.96 -1.92,8.19 -4.29,47.24 -5.36,59.28 -0.25,2.81 -1.66,8.08 2.41,8.03 3.65,-0.05 3.2,-4.45 3.43,-7.79l3.85 -50.19c0.39,-6.2 1.47,-13.46 6.27,-15.37z"/>
   <path class="fil5" d="M232.35 246.98l0.09 -1.09 15.6 0.17 0.55 0.21c1.15,-1.65 1.84,-0.84 2.97,-3.13 0.7,-1.4 0.86,-3.28 0.88,-5.13 0.04,-4.39 0.54,-7.8 -2.44,-9.93l-0.67 -0.1 -16.27 0.49c-2.96,0.16 -2.65,0.45 -3.89,-0.72 -0.88,4.49 -3.32,0.96 -1.77,11.25 0.62,4.05 1.31,4.78 3.34,6.47l1.61 1.51z"/>
   <path class="fil4" d="M103.44 347.51c0.4,10.77 0.63,21.43 0.71,32.22 0.04,5.6 -0.69,28.6 0.45,31.75 7.25,2.54 5.4,-7.2 5.47,-12.8 0.16,-13.14 0.3,-25.24 -0.25,-38.4 -0.24,-5.72 -1.21,-12.23 -1.37,-17.3 -1.53,1.03 -3.81,3.06 -5.01,4.53z"/>
   <path class="fil3" d="M452.18 387.13c12.21,-0.96 27.57,9.53 36.57,13.44l2.25 -5.35 0 -6.42c-1.54,-1.27 -2.03,-2.42 -4.26,-2.68 -1.75,1.94 -2.46,6.73 -6.2,5.14 -3.76,-1.59 0.17,-5.88 0.96,-8.06l-4.61 -1.49c-1.84,1.08 -1.06,0.72 -2.87,4.06 -3.15,5.82 -9.2,0.09 -3.41,-5.37 -0.38,-0.36 -0.38,-0.87 -0.74,-1.29l-3.2 -1.08c-0.49,2.49 -0.99,2.56 -2.04,4.5 -0.91,1.68 -0.86,3.02 -3.3,3.04 -4.87,0.03 -2.26,-5.4 -1.04,-7.38 -0.66,-0.39 1.41,-0.72 -1.51,-0.33 -3.05,0.63 -5.21,6.25 -6.6,9.27z"/>
   <path class="fil4" d="M280.29 339.37c1.64,0.99 2.45,0.86 4.38,0.45 2.3,-4.27 2.15,-17.52 2.53,-23.76 0.26,-4.28 2.39,-22.06 0.7,-24.36 -4.55,-4.5 -5.12,3.8 -5.33,6.94 -0.56,7.97 -3.01,36.65 -2.28,40.73z"/>
   <path class="fil4" d="M315.09 340.38l3.82 -0.12c1.74,-3.19 -0.35,-19.55 -0.5,-24.52l-0.35 -19.46c-0.12,-2.42 -0.48,-3.68 -3.06,-3.57 -4.06,0.18 -2.73,6.91 -2.69,10.26 0.09,7.83 0.09,32.99 2.78,37.41z"/>
   <path class="fil4" d="M296.06 340.44l2.45 0.05 1.07 -1.23c1.17,-1.76 0.97,-6.97 1.11,-9.69 0.28,-5.39 2.12,-35.07 1.34,-36.2 -5.28,-3.4 -5.55,1.58 -5.76,6.53 -0.19,4.62 -0.37,9.21 -0.62,13.8l-1.04 21.05c-0.14,3.04 -0.09,3.67 1.45,5.69z"/>
   <path class="fil4" d="M331.3 268.3c0.76,-1.26 0.45,-0.28 0.65,-2.15 0.32,-2.88 -0.77,-18.5 0.42,-20.54 0.12,0.13 0.52,0.4 0.6,0.46l0.82 0.61c0.66,-2.12 0.9,-0.78 1.52,-2.79 0.68,-2.19 -5.64,-17.9 -6.47,-20.29l-5.85 -17.19c-0.97,-2.93 -1.22,-3.8 -5.05,-3.2 -2.84,1.73 1.15,9.69 2.66,14.3 1.67,5.12 3.44,10.09 5.28,15.19l4.09 11.28c1.36,2.48 1.26,0.13 1.42,3.68 0.28,5.8 0.27,14.88 -0.09,20.64z"/>
   <path class="fil3" d="M198.64 138.22c4.55,0.18 4.89,-2.14 4.52,-6.55 -0.49,-5.85 -2.98,-12.27 -5.31,-17.57 -0.64,-1.46 -1.09,-2.4 -1.73,-3.91 -0.7,-1.66 -0.85,-3.1 -2.92,-3.13 -0.77,-0.02 -5.56,0.92 -4.13,6.09 1.87,6.77 6.19,19.86 9.57,25.07z"/>
   <path class="fil5" d="M402.77 118.52l14.45 -0.65c0.09,-3.87 0.76,-9.21 0.21,-12.94 -0.55,-3.75 -3.53,-6.03 -6.93,-3.74 -3.89,2.61 -5.69,12.32 -7.73,17.33z"/>
   <path class="fil6" d="M228.8 225.29l20.73 -0.09 -0.2 2.78 0.67 0.1c-0.01,-4.29 6.87,-10.08 -5.11,-11.04 -5.13,-0.41 -15.03,-0.25 -17.77,2.56 -0.62,3.29 -0.23,4.18 1.68,5.69z"/>
   <path class="fil1" d="M388.05 421.48c-4.01,1.3 -5.46,4.76 -7.31,8.13 -2.65,4.82 -0.26,9.09 5.22,7.31 10.63,-3.46 11.41,-18.47 2.09,-15.44z"/>
   <path class="fil0" d="M385.01 397.51c-0.66,1.86 -1.53,3.2 -1.22,5.57 0.35,2.66 1.48,2.93 2.35,4.88 1.55,0.15 1.63,0.38 3.11,0.95 2.09,0.14 3.45,0.18 5.19,-0.89 1.3,-0.8 0.77,-0.61 1.59,-1.49 1.31,-1.4 -0.21,-0.82 1.77,-1.29 -1.21,-2.03 0.35,-1.86 -0.36,-5.12 -0.4,-1.85 -1.61,-3.33 -2.93,-4.25 -4.5,-3.15 -7.03,0.51 -9.5,1.64z"/>
   <path class="fil3" d="M393.19 185.96c3.22,0.22 4.73,1.76 5.24,4.92 1.27,-0.5 4.88,-5.63 5.75,-6.97 1.35,-2.09 3.8,-5.81 3.7,-8.33 -1.3,0.58 -2.28,0.57 -3.39,-0.48 -1.81,-1.71 0.02,-1.71 -1.91,-2.48 -2.62,2.29 -8,8.93 -9.39,13.34z"/>
   <path class="fil4" d="M339.87 387.87c-0.62,-2.02 0.23,-1.83 0.99,-4.61 -0.16,-2.56 0.01,-0.82 -0.68,-1.16l-2.33 -0.59c-1.11,-0.11 -0.61,-0.2 -1.39,0.19 -0.57,-3.21 4.51,-3.76 -1.33,-7.99 -0.24,1.23 0.37,0.1 -0.76,0.85 -4.28,2.86 -9.24,2.69 -7.32,8.42 4.18,1.57 4.63,-0.79 8.58,-2.33 -0.19,3.4 -1.66,2.16 -3.58,3.91 -1.93,1.76 -0.93,3.49 0.77,4.58 3.9,1.37 3.87,-2.19 7.05,-1.27z"/>
   <path class="fil4" d="M215.1 273.88c1.38,1.64 1.03,2.86 1.77,4.06l0.36 -2.04c2.23,0.92 13.27,0.39 16.45,0.4 0.07,1.73 -0.07,4.41 0.73,5.43 -0.01,-2.21 -0.63,-4.11 0.33,-5.81 1.24,-2.22 1.78,-1.04 0.8,-4.64 1.9,-0.28 1.15,-0.29 1.64,-0.73 -2.76,0.42 -9.13,-0.11 -12.78,-0.12 -1.55,0 -5.13,-0.18 -6.45,0.06 -2.3,0.41 -2.11,1.47 -2.85,3.39z"/>
   <path class="fil6" d="M389.25 408.91c-1.22,6.75 4.01,13.87 9.51,10.09l1.79 -1.51c-2.86,-4.63 -1.35,-6.55 0.87,-10.26l-3.62 -1.99c-1.98,0.47 -0.46,-0.11 -1.77,1.29 -0.82,0.88 -0.29,0.69 -1.59,1.49 -1.74,1.07 -3.1,1.03 -5.19,0.89z"/>
   <path class="fil3" d="M182.57 114.24c-0.47,0.39 -9.04,12.44 -8.83,14.7 0.19,1.98 2.24,3.82 4.56,2.58 1.28,-0.68 8.76,-13.31 8.88,-14.87 0.21,-2.67 -2.32,-4.32 -4.61,-2.41z"/>
   <path class="fil3" d="M206.67 116.14c0.34,2.47 6.82,9.87 9.08,12.8 1.1,1.42 2.48,3.57 4.86,2.58 4.69,-1.96 -1.38,-7.53 -2.55,-8.97 -2.14,-2.63 -4.45,-5.67 -6.41,-8.25 -2.64,-0.79 -3.9,-0.52 -4.98,1.84z"/>
   <path class="fil5" d="M402.58 172.62c1.93,0.77 0.1,0.77 1.91,2.48 1.11,1.05 2.09,1.06 3.39,0.48 2.31,-1.9 8.79,-7.28 7.84,-12.24 -3.22,-2.12 -6.22,-0.78 -8.67,1.44 -3.26,2.97 -2.36,4.62 -4.47,7.84z"/>
   <path class="fil4" d="M302.82 388.46c1.35,-6.05 -1.38,-4.23 -3.69,-5.66 -0.57,-3.81 4.14,-5.06 -1.62,-9.32 0.71,2.24 0.59,0.61 -4.76,2.95 -2.6,1.13 -2.77,2.3 -1.94,4.99 3.51,1.6 4.03,-0.23 7.51,-0.77l0.48 3.36c-3.16,1.16 -6.44,3.63 -3.16,6.77 3.82,1.01 4,-1.35 7.18,-2.32z"/>
   <path class="fil3" d="M401.42 407.23c-2.22,3.71 -3.73,5.63 -0.87,10.26 4.31,2.92 8.39,-0.04 9.14,-4.57 0.91,-5.54 -3.95,-7.47 -8.27,-5.69z"/>
   <path class="fil8" d="M211.26 91.76c-1.12,0.99 -1.58,2.09 -0.48,3.73 0.85,1.28 2.34,1.42 4.03,1.57 2.31,0.2 9.6,0.96 11.26,-0.18 1.15,-0.8 1.56,-2.81 0.47,-4.25 -0.87,-1.16 -2.87,-1.09 -4.68,-1.14 -2.93,-0.09 -8.62,-1.46 -10.6,0.27z"/>
   <path class="fil8" d="M164.48 88.43c-1.36,0.9 -1.72,2.61 -0.47,4.19 1.42,1.81 14.11,2.09 15.4,1.08 1.1,-0.86 1.15,-2.83 0.38,-3.98 -1.58,-2.35 -14.15,-2.06 -15.31,-1.29z"/>
   <path class="fil8" d="M174.54 112.18c2.48,0.05 5.12,0.72 6.83,-0.6 2.47,-2.19 0.38,-3.91 -0.89,-5.32 -2.91,0.46 -12.28,-0.95 -13.91,0.74 -1.69,1.74 -0.63,4.29 1.28,4.83 1.21,0.33 5.1,0.24 6.69,0.35z"/>
   <path class="fil6" d="M386.14 407.96c-0.87,-1.95 -2,-2.22 -2.35,-4.88 -0.31,-2.37 0.56,-3.71 1.22,-5.57 -3.68,0.58 -3.8,0.13 -6.36,1.88 -1.78,1.21 -3.58,2.31 -3.46,5.4 0.21,5.22 7,5.45 10.95,3.17z"/>
   <path class="fil4" d="M144.57 239.5c1.69,0.8 2.56,0.16 4.08,1.17 0.04,0.02 2.22,2.26 2.31,2.41 4.15,-1.65 14.92,0.9 10.66,-6.74 -2.9,-0.65 -4.61,0.23 -7.85,0.34 -4.98,0.17 -3.42,-0.18 -5.61,2.91l-3.59 -0.09z"/>
   <path class="fil4" d="M86.61 277.22l0.08 2.77c2.62,2.09 4.81,1.84 8.69,2.18l-0.16 3.21c0.93,-1.1 0.54,-1.03 0.97,-2.61l1.79 -0.85c1.43,-0.94 0.44,-0.18 1.22,-1.3 1.58,-2.29 0.09,-0.59 2.44,-2.3l-2.17 -0.23c-1.91,-1.88 -1.93,-1.59 -5.66,-2.01 -5.84,-0.66 -4.36,-0.57 -7.2,1.14z"/>
   <path class="fil1" d="M362.2 401.64c-6.89,3.16 -1.47,10.8 3.65,8.55 5.08,-2.25 2.41,-11.33 -3.65,-8.55z"/>
   <path class="fil0" d="M229.17 227.75c1.24,1.17 0.93,0.88 3.89,0.72l16.27 -0.49 0.2 -2.78 -20.73 0.09 0.37 2.46z"/>
   <path class="fil4" d="M458.78 377.86c2.92,-0.39 0.85,-0.06 1.51,0.33 -1.22,1.98 -3.83,7.41 1.04,7.38 2.44,-0.02 2.39,-1.36 3.3,-3.04 1.05,-1.94 1.55,-2.01 2.04,-4.5 -0.65,-1.82 -1.31,-2.86 -3.67,-2.37l-3.87 1.98c-0.06,-0.11 -0.25,0.13 -0.35,0.22z"/>
   <path class="fil4" d="M469.87 379.11c0.36,0.42 0.36,0.93 0.74,1.29 -5.79,5.46 0.26,11.19 3.41,5.37 1.81,-3.34 1.03,-2.98 2.87,-4.06 -1.08,-1.08 -1.39,-2.36 -2.51,-2.82 -1.8,-0.75 -2.36,0.25 -4.51,0.22z"/>
   <path class="fil4" d="M94.83 216.24c0.79,-1.58 0.98,-8.74 0.71,-10.9l-0.49 4.12c-3.21,-1.23 -3.78,-0.72 -5.54,1.6 -1.09,1.43 -2.86,2.61 -1.77,4.81 0.87,1.54 2.17,2.2 4.07,1.1 0.68,-0.39 2.54,-2.62 2.87,-3.09l0.15 2.36z"/>
   <path class="fil4" d="M78.84 227.77l0.64 -0.04 -0.19 -5.61 2.15 -0.79c6.05,-2.45 -2.14,-7.28 -2.19,-7.36 -2.22,0.29 -4.42,0.79 -4.04,3.4 0.29,2.05 2.32,2.62 3.54,3.66l0.09 6.74z"/>
   <path class="fil7" d="M309.38 167.31l6.77 1.75c1.17,-0.79 0.27,-0.42 1.4,-0.67l-1.63 -2.53c-0.57,-1.36 -0.42,-0.89 -0.17,-2.18 1.29,-3.45 3.82,-0.47 6.51,-2.95 -4.79,-3.25 -3.94,-5.01 -6.51,-0.77 -2.14,3.55 -3.45,4.45 -6.37,7.35z"/>
   <path class="fil4" d="M95.6 201.03c1.35,-3.23 3.73,-4.28 2.51,-8.29l-2.7 -0.8c-2.13,0.85 -2.34,1.67 -3.48,3.63 -1.3,2.22 -1.37,2.94 -0.23,5.16l3.9 0.3z"/>
   <path class="fil4" d="M486.74 386.12c-1.71,-3.22 -0.74,-2.68 -5.24,-2.92 -0.79,2.18 -4.72,6.47 -0.96,8.06 3.74,1.59 4.45,-3.2 6.2,-5.14z"/>
   <path class="fil4" d="M79.05 205.26c2.6,0.49 5.83,1.1 5.49,-2.51 -0.19,-2.13 -2.71,-4.13 -4.72,-4.72l-0.12 -2.43c-0.58,1.05 -0.16,0.65 -0.51,1.47 -0.94,2.17 -1.81,1.8 -2.14,3.05 -0.14,3.71 1.28,2.22 2,5.14z"/>
   <path class="fil6" d="M161.91 228.88c2.78,-5.6 -4.56,-7.2 -6.3,-3.37 -2.32,5.14 4.4,7.19 6.3,3.37z"/>
   <path class="fil4" d="M317.55 168.39c1.5,-0.87 2.35,-0.67 3.53,-0.94 5.23,-1.2 1.29,-4.91 1.18,-6.72 -2.69,2.48 -5.22,-0.5 -6.51,2.95 -0.25,1.29 -0.4,0.82 0.17,2.18l1.63 2.53z"/>
   <path class="fil9" d="M364.47 422.5c3.42,-0.29 6.41,-0.54 9.15,-2.01 0.3,-1.83 0.02,-3.01 -0.82,-4.49 -4.74,-0.7 -7.63,2.55 -8.33,6.5z"/>
   <path class="fil4" d="M81.06 187.94c1.61,0.3 2.78,1.51 4.58,0.33 1.96,-1.28 0.87,-3.24 0.43,-5.2 -1.77,-0.96 -3.51,-3.44 -5.68,0.01 -0.58,1.88 0.43,3.09 0.67,4.86z"/>
   <path class="fil4" d="M459.92 406.22c1.97,-0.55 3.63,0.88 5.27,-0.64 1.8,-1.65 0.41,-3.51 -0.41,-4.71l-3.99 -0.43 -0.56 1.19c-0.76,1.98 -0.36,2.2 -0.31,4.59z"/>
   <path class="fil0" d="M232.35 246.98l-0.41 0.58c3.61,0.84 11.17,0.03 15.22,-0.14l0.88 -1.36 -15.6 -0.17 -0.09 1.09z"/>
  </g>
 </g>
</svg>
