<svg width="1440" height="466" viewBox="0 0 1440 466" fill="none" xmlns="http://www.w3.org/2000/svg">
<path d="M452.485 62.3665C265.277 13.4413 37.3249 312.57 -45.5 467.5L1450 466V428.5C1357.84 308.225 1240.79 175.676 1193.78 141.36C1079.3 39.025 948.746 153.082 897.777 222.902C840.333 303.629 773.281 269.789 746.935 242.778C620.064 121.281 497.772 71.8797 452.485 62.3665Z" fill="#FFF2F6"/>
<path d="M474.038 16.9178C267.602 -37.0315 33.3312 291.16 -58 462H1528L1549.5 400.5C1447.88 267.875 1343.3 141.863 1291.46 104.023C1165.23 -8.82062 1021.27 116.949 965.062 193.939C901.719 282.955 827.78 245.641 798.729 215.856C658.827 81.8817 523.976 27.4079 474.038 16.9178Z" stroke="#FEDDE8"/>
</svg>
